<?xml version="1.0" encoding="UTF-8"?>
<!DOCTYPE svg PUBLIC "-//W3C//DTD SVG 1.1//EN" "http://www.w3.org/Graphics/SVG/1.1/DTD/svg11.dtd">
<!-- Creator: CorelDRAW 2021 (64-Bit) -->
<svg xmlns="http://www.w3.org/2000/svg" xml:space="preserve" width="4000px" height="2250px" version="1.1" style="shape-rendering:geometricPrecision; text-rendering:geometricPrecision; image-rendering:optimizeQuality; fill-rule:evenodd; clip-rule:evenodd"
viewBox="0 0 4000 2250"
 xmlns:xlink="http://www.w3.org/1999/xlink"
 xmlns:xodm="http://www.corel.com/coreldraw/odm/2003">
 <defs>
  <style type="text/css">
   <![CDATA[
    .str0 {stroke:#663300;stroke-width:1.88;stroke-linecap:round;stroke-linejoin:round;stroke-miterlimit:2.61313}
    .fil1 {fill:none}
    .fil3 {fill:none;fill-rule:nonzero}
    .fil0 {fill:white}
    .fil4 {fill:#1A1A1A;fill-rule:nonzero;fill-opacity:0.278431}
    .fil8 {fill:url(#id13)}
    .fil7 {fill:url(#id14)}
    .fil6 {fill:url(#id15);fill-rule:nonzero}
    .fil2 {fill:url(#id16);fill-rule:nonzero}
    .fil5 {fill:url(#id17);fill-rule:nonzero}
   ]]>
  </style>
   <clipPath id="id0">
    <path d="M0 0l4000 0 0 2250 -4000 0 0 -2250z"/>
   </clipPath>
    <clipPath id="id1">
     <path d="M0 0l2686.08 0 0 2250 -2686.08 0 0 -2250z"/>
    </clipPath>
    <clipPath id="id2">
     <path d="M2686.08 2250l0 -2250 -2686.08 0 0 2250 2686.08 0z"/>
    </clipPath>
    <clipPath id="id3">
     <path d="M0 0l2686.08 0 0 2250 -2686.08 0 0 -2250z"/>
    </clipPath>
    <clipPath id="id4">
     <path d="M0 0l4000 0 0 2250 -4000 0 0 -2250z"/>
    </clipPath>
    <clipPath id="id5">
     <path d="M0 0l3134.26 0 0 2250 -3134.26 0 0 -2250z"/>
    </clipPath>
    <clipPath id="id6">
     <path d="M3134.26 2250l0 -2250 -3134.26 0 0 2250 3134.26 0z"/>
    </clipPath>
    <clipPath id="id7">
     <path d="M0 0l3134.26 0 0 2250 -3134.26 0 0 -2250z"/>
    </clipPath>
    <clipPath id="id8">
     <path d="M0 0l4000 0 0 2250 -4000 0 0 -2250z"/>
    </clipPath>
    <clipPath id="id9">
     <path d="M4000 237.77l0 1960.66 -2190 0 0 -1960.66 2190 0z"/>
    </clipPath>
    <clipPath id="id10">
     <path d="M1810 2198.43l2190 0 0 -1960.66 -2190 0 0 1960.66z"/>
    </clipPath>
    <clipPath id="id11">
     <path d="M4000 237.77l0 1960.66 -2190 0 0 -1960.66 2190 0z"/>
    </clipPath>
    <clipPath id="id12">
     <path d="M0 0l4000 0 0 2250 -4000 0 0 -2250z"/>
    </clipPath>
  <linearGradient id="id13" gradientUnits="userSpaceOnUse" x1="973.04" y1="2130.52" x2="4840.52" y2="2224.08">
   <stop offset="0" style="stop-opacity:1; stop-color:#996633"/>
   <stop offset="1" style="stop-opacity:1; stop-color:#663300"/>
  </linearGradient>
  <linearGradient id="id14" gradientUnits="userSpaceOnUse" x1="-3120.91" y1="2032.93" x2="4899.53" y2="2130.31">
   <stop offset="0" style="stop-opacity:1; stop-color:black"/>
   <stop offset="1" style="stop-opacity:1; stop-color:#663300"/>
  </linearGradient>
  <linearGradient id="id15" gradientUnits="objectBoundingBox" xlink:href="#id13" x1="24.3008%" y1="59.2676%" x2="121.038%" y2="64.9339%">
  </linearGradient>
  <linearGradient id="id16" gradientUnits="objectBoundingBox" xlink:href="#id14" x1="0%" y1="26.4269%" x2="122.497%" y2="30.204%">
  </linearGradient>
  <linearGradient id="id17" gradientUnits="objectBoundingBox" xlink:href="#id13" x1="24.3045%" y1="59.3599%" x2="121.037%" y2="64.8422%">
  </linearGradient>
 </defs>
 <g id="Layer_x0020_1">
  <metadata id="CorelCorpID_0Corel-Layer"/>
  <polygon class="fil0" points="0,0 4000,0 4000,2250 0,2250 "/>
  <g style="clip-path:url(#id0)">
   <g id="_1887430148544">
   </g>
   <g style="clip-path:url(#id1)">
   </g>
   <g style="clip-path:url(#id2)">
    <image x="-235.32" y="-286.38" width="2921.4" height="2921.4" xlink:href="Cover page2_Images\Cover page2_ImgID1.png"/>
   </g>
   <g style="clip-path:url(#id3)">
   </g>
   <g style="clip-path:url(#id4)">
   </g>
   <g style="clip-path:url(#id5)">
   </g>
   <g style="clip-path:url(#id6)">
    <image x="-31.61" y="-31.17" width="3165.87" height="2532.7" xlink:href="Cover page2_Images\Cover page2_ImgID2.png"/>
   </g>
   <g style="clip-path:url(#id7)">
   </g>
   <g style="clip-path:url(#id8)">
   </g>
   <g style="clip-path:url(#id9)">
   </g>
   <g style="clip-path:url(#id10)">
    <image x="1810" y="237.77" width="2215.12" height="1960.66" xlink:href="Cover page2_Images\Cover page2_ImgID3.png"/>
   </g>
   <g style="clip-path:url(#id11)">
   </g>
   <g style="clip-path:url(#id12)">
   </g>
  </g>
  <polygon class="fil1" points="0,0 4000,0 4000,2250 0,2250 "/>
  <path class="fil2" d="M449.23 500.23c32.59,0 57.72,9.29 75.35,27.86 17.62,18.57 26.47,44.42 26.47,77.56 0,34.26 -11.01,61.95 -33.09,83.13 -22.02,21.19 -50.71,31.75 -86.13,31.64 -31.36,-0.11 -56.11,-9.56 -74.18,-28.41 -18.07,-18.85 -27.13,-44.54 -27.13,-77.01 0,-32.98 11.06,-60.28 33.25,-82.08 22.13,-21.79 50.6,-32.69 85.46,-32.69zm57.78 106.09c0,-20.18 -5.67,-36.53 -17.02,-48.98 -11.34,-12.52 -26.24,-18.75 -44.7,-18.75 -19.02,0 -35.54,7.46 -49.49,22.41 -13.96,14.91 -20.91,32.7 -20.91,53.33 0,19.74 5.73,35.98 17.18,48.65 11.46,12.74 26.08,19.08 43.93,19.08 19.41,0 36.14,-7.45 50.1,-22.3 13.96,-14.9 20.91,-32.7 20.91,-53.44z"/>
  <polygon id="_1" class="fil2" points="629.04,503.57 745.09,503.57 739.36,541.26 667.58,541.26 660.52,588.97 728.41,588.97 722.85,626.67 654.9,626.67 641.44,717.42 597.29,717.42 "/>
  <polygon id="_2" class="fil2" points="800.62,503.57 916.67,503.57 910.94,541.26 839.16,541.26 832.1,588.97 899.99,588.97 894.43,626.67 826.48,626.67 813.02,717.42 768.87,717.42 "/>
  <polygon id="_3" class="fil2" points="964.53,503.57 1008.68,503.57 976.93,717.42 932.78,717.42 "/>
  <path id="_4" class="fil2" d="M1227.52 518.25l-5.67 39.03c-14.23,-11.79 -30.8,-17.68 -49.65,-17.68 -21.3,0 -39.93,7.84 -55.89,23.46 -15.96,15.68 -23.91,33.86 -23.91,54.49 0,18.52 5.73,33.54 17.19,45.16 11.45,11.56 26.3,17.34 44.53,17.34 16.69,0 34.76,-5.22 54.05,-15.67l-6.34 43.37c-17.62,9.12 -35.53,13.67 -53.77,13.67 -31.75,0 -56.55,-10.01 -74.45,-30.02 -17.96,-20.02 -26.91,-43.76 -26.91,-71.29 0,-36.53 12.01,-65.67 35.97,-87.35 24.02,-21.69 50.38,-32.53 79.02,-32.53 26.19,0 48.15,6 65.83,18.02z"/>
  <polygon id="_5" class="fil2" points="1286.78,503.57 1330.93,503.57 1299.18,717.42 1255.03,717.42 "/>
  <path id="_6" class="fil2" d="M1466.87 503.57l30.69 0 54.22 213.85 -41.21 0 -10.78 -43.04 -79.24 0 -23.13 43.04 -45.49 0 114.94 -213.85zm7.67 70.39l-33.92 63.06 49.77 0 -15.85 -63.06z"/>
  <polygon id="_7" class="fil2" points="1633.67,503.57 1677.98,503.57 1652.18,679.05 1722.69,679.05 1717.3,717.42 1602.25,717.42 "/>
  <path id="_8" class="fil3 str0" d="M449.23 500.23c32.59,0 57.72,9.29 75.35,27.86 17.62,18.57 26.47,44.42 26.47,77.56 0,34.26 -11.01,61.95 -33.09,83.13 -22.02,21.19 -50.71,31.75 -86.13,31.64 -31.36,-0.11 -56.11,-9.56 -74.18,-28.41 -18.07,-18.85 -27.13,-44.54 -27.13,-77.01 0,-32.98 11.06,-60.28 33.25,-82.08 22.13,-21.79 50.6,-32.69 85.46,-32.69zm57.78 106.09c0,-20.18 -5.67,-36.53 -17.02,-48.98 -11.34,-12.52 -26.24,-18.75 -44.7,-18.75 -19.02,0 -35.54,7.46 -49.49,22.41 -13.96,14.91 -20.91,32.7 -20.91,53.33 0,19.74 5.73,35.98 17.18,48.65 11.46,12.74 26.08,19.08 43.93,19.08 19.41,0 36.14,-7.45 50.1,-22.3 13.96,-14.9 20.91,-32.7 20.91,-53.44z"/>
  <polygon id="_9" class="fil3 str0" points="629.04,503.57 745.09,503.57 739.36,541.26 667.58,541.26 660.52,588.97 728.41,588.97 722.85,626.67 654.9,626.67 641.44,717.42 597.29,717.42 "/>
  <polygon id="_10" class="fil3 str0" points="800.62,503.57 916.67,503.57 910.94,541.26 839.16,541.26 832.1,588.97 899.99,588.97 894.43,626.67 826.48,626.67 813.02,717.42 768.87,717.42 "/>
  <polygon id="_11" class="fil3 str0" points="964.53,503.57 1008.68,503.57 976.93,717.42 932.78,717.42 "/>
  <path id="_12" class="fil3 str0" d="M1227.52 518.25l-5.67 39.03c-14.23,-11.79 -30.8,-17.68 -49.65,-17.68 -21.3,0 -39.93,7.84 -55.89,23.46 -15.96,15.68 -23.91,33.86 -23.91,54.49 0,18.52 5.73,33.54 17.19,45.16 11.45,11.56 26.3,17.34 44.53,17.34 16.69,0 34.76,-5.22 54.05,-15.67l-6.34 43.37c-17.62,9.12 -35.53,13.67 -53.77,13.67 -31.75,0 -56.55,-10.01 -74.45,-30.02 -17.96,-20.02 -26.91,-43.76 -26.91,-71.29 0,-36.53 12.01,-65.67 35.97,-87.35 24.02,-21.69 50.38,-32.53 79.02,-32.53 26.19,0 48.15,6 65.83,18.02z"/>
  <polygon id="_13" class="fil3 str0" points="1286.78,503.57 1330.93,503.57 1299.18,717.42 1255.03,717.42 "/>
  <path id="_14" class="fil3 str0" d="M1466.87 503.57l30.69 0 54.22 213.85 -41.21 0 -10.78 -43.04 -79.24 0 -23.13 43.04 -45.49 0 114.94 -213.85zm7.67 70.39l-33.92 63.06 49.77 0 -15.85 -63.06z"/>
  <polygon id="_15" class="fil3 str0" points="1633.67,503.57 1677.98,503.57 1652.18,679.05 1722.69,679.05 1717.3,717.42 1602.25,717.42 "/>
  <path class="fil4" d="M521.71 858.5l-53.68 0c-1.31,-22.46 -3.26,-34.87 -5.87,-37.22 -1.84,-2.09 -4.9,-3.6 -9.21,-4.51 -4.31,-0.91 -9.86,-1.37 -16.66,-1.37l-12.54 0c-2.34,0 -5.09,0.07 -8.22,0.2 -3.14,0.13 -6.53,0.32 -10.19,0.58l-4.31 0c-0.52,0 -0.92,0.07 -1.18,0.2 -0.26,0.13 -0.52,0.19 -0.78,0.19l0.39 0c-3.66,0.53 -6.92,1.05 -9.79,1.57 -2.88,0.52 -4.71,0.92 -5.49,1.18 -1.83,1.04 -3.2,2.68 -4.11,4.9 -0.92,2.21 -1.51,4.5 -1.77,6.85 -0.26,1.57 -0.46,3.4 -0.59,5.49 -0.13,2.09 -0.19,3.39 -0.19,3.92 0,11.23 1.17,18.54 3.53,21.94l0 -0.39c1.56,2.09 7.44,3.78 17.63,5.09 4.44,0.26 9.21,0.39 14.3,0.39 5.09,0 9.86,0 14.3,0 12.28,0.26 23.77,1.31 34.48,3.14 10.71,1.83 20.51,4.18 29.39,7.05 23.25,8.1 34.87,30.69 34.87,67.79 0,19.33 -3.13,36.57 -9.4,51.72 -7.31,17.24 -24.29,27.43 -50.94,30.56 -0.78,0 -1.63,0.07 -2.55,0.2 -0.91,0.13 -1.63,0.19 -2.15,0.19l-3.92 0c-1.3,0 -2.55,0.07 -3.72,0.2 -1.18,0.13 -2.42,0.2 -3.72,0.2 -1.05,0 -1.96,0 -2.75,0 -0.78,0 -1.83,0.13 -3.13,0.39 -3.66,0.26 -7.64,0.39 -11.95,0.39 -4.31,0 -8.3,0 -11.95,0 -26.39,0 -48.33,-3.4 -65.83,-10.19 -21.94,-8.1 -32.92,-30.43 -32.92,-67 0,-1.05 -0.06,-2.09 -0.19,-3.14 -0.13,-1.04 0.06,-2.35 0.59,-3.91l0 -6.27c0,-1.31 0.06,-3.6 0.19,-6.86 0.13,-3.27 0.2,-5.16 0.2,-5.68l53.68 0c0,26.38 1.57,41.92 4.7,46.63 3.92,3.13 14.37,4.7 31.35,4.7l21.94 0c8.36,0 15.22,-0.33 20.57,-0.98 5.36,-0.66 9.34,-1.9 11.95,-3.72 1.31,-1.05 2.42,-3.53 3.33,-7.45 0.92,-3.92 1.38,-9.67 1.38,-17.24 0,-12.28 -1.18,-19.59 -3.53,-21.94 -1.83,-1.83 -8.36,-3.14 -19.59,-3.92 -3.14,-0.26 -6.6,-0.39 -10.39,-0.39 -3.79,0 -7.25,0 -10.38,0 -12.8,-0.53 -24.82,-1.7 -36.05,-3.53 -11.23,-1.83 -21.68,-4.31 -31.35,-7.44 -24.81,-8.36 -37.22,-31.35 -37.22,-68.97 0,-34.74 9.8,-56.68 29.39,-65.82 17.5,-8.1 39.18,-12.15 65.04,-12.15l6.27 0c12.8,0 24.82,0.78 36.05,2.35 11.23,1.57 21.03,3.92 29.39,7.05 22.2,8.36 33.3,30.7 33.3,67.01l0 18.02zm161.05 70.14c-3.4,-8.62 -6.53,-17.05 -9.41,-25.27 -2.87,-8.23 -5.74,-16.14 -8.62,-23.71 -1.3,-3.92 -2.41,-7.12 -3.33,-9.6 -0.91,-2.48 -1.76,-4.9 -2.54,-7.25 -0.79,-2.35 -1.77,-5.03 -2.94,-8.03 -1.18,-3.01 -2.68,-7.12 -4.51,-12.34 -2.61,7.31 -5.16,14.62 -7.64,21.94 -2.48,7.31 -5.16,14.5 -8.03,21.55 -1.57,4.18 -2.88,7.9 -3.92,11.17 -1.05,3.26 -2.16,6.46 -3.33,9.6 -1.18,3.13 -2.42,6.4 -3.72,9.79 -1.31,3.4 -2.75,7.45 -4.31,12.15l62.3 0zm17.63 50.15l-97.57 0c-2.87,7.58 -5.87,16 -9.01,25.28 -3.13,9.27 -6.01,17.3 -8.62,24.09l-59.17 0 96 -262.92 57.6 0 98.35 262.92 -58.77 0 -18.81 -49.37zm381.64 -213.55l0 262.92 -55.63 0 0 -157.51c-4.45,10.97 -8.95,21.94 -13.52,32.91 -4.58,10.97 -9.08,21.94 -13.52,32.92l0.39 0c-6.01,14.89 -12.28,30.3 -18.81,46.23 -6.53,15.94 -12.8,31.09 -18.81,45.45l-45.45 0 -65.04 -155.16 0 155.16 -54.47 0 0 -262.92 69.75 0 72.49 176.33c12.01,-28.74 24.23,-58.32 36.63,-88.75 12.41,-30.43 24.36,-59.63 35.86,-87.58l70.13 0zm347.95 0l0 44.67 -131.26 166.53 134.79 0 0 51.72 -211.59 0 0 -42.7 131.26 -166.54 -126.95 0 0 -53.68 203.75 0zm188.87 0l55.25 0 0 178.29c0,14.11 -1.51,26.25 -4.51,36.44 -3,10.19 -7.25,18.81 -12.73,25.86 -12.28,14.11 -33.31,21.81 -63.09,23.12 -4.18,0.26 -8.68,0.45 -13.52,0.58 -4.83,0.14 -9.34,0.2 -13.52,0.2 -15.41,0 -29.25,-1.04 -41.53,-3.13 -12.28,-2.09 -22.86,-4.97 -31.74,-8.62l0.39 0.39c-22.46,-8.88 -33.69,-33.83 -33.69,-74.84l0 -178.29 55.63 0 0 178.29c0,15.67 1.97,25.21 5.88,28.6l-0.78 -0.39c4.96,3.92 15.28,5.88 30.96,5.88l25.46 0c9.15,0 16.59,-0.33 22.34,-0.98 5.75,-0.66 10.05,-2.03 12.93,-4.12 4.18,-3.39 6.27,-13.06 6.27,-28.99l0 -178.29zm182.59 117.95l127.35 0c1.3,9.92 2.02,17.3 2.15,22.13 0.14,4.84 0.2,9.08 0.2,12.74l0 21.55c0,20.38 -2.87,38.4 -8.62,54.07 -3.66,9.93 -9.73,17.7 -18.22,23.32 -8.49,5.61 -20.05,9.34 -34.68,11.16 -7.84,0.79 -15.93,1.31 -24.29,1.57 -8.36,0.26 -16.72,0.39 -25.08,0.39 -41.8,0 -70.53,-6.66 -86.2,-19.98 -16.98,-13.85 -25.47,-41.14 -25.47,-81.89 0,-5.49 0,-10.97 0,-16.46 0,-5.49 0.13,-11.1 0.39,-16.85l0 -30.95c0,-33.96 6.92,-59.04 20.77,-75.24 7.31,-8.35 17.3,-14.62 29.97,-18.8 12.67,-4.18 27.63,-6.27 44.87,-6.27 4.96,0 9.79,0 14.49,0 4.71,0 9.54,0.13 14.5,0.39l6.27 0 7.05 0 14.11 0c25.6,0.78 43.56,7.64 53.88,20.57 10.32,12.93 15.48,31.28 15.48,55.05l0 23.12 -54.86 0c0,-21.94 -1.44,-35.66 -4.31,-41.14 -1.31,-2.61 -6.79,-4.18 -16.46,-4.7 -8.1,-0.53 -16,-0.85 -23.7,-0.98 -7.71,-0.13 -15.74,-0.2 -24.1,-0.2 -20.12,0 -32,2.09 -35.66,6.27 -3.65,4.44 -5.75,18.94 -6.27,43.49 0,2.62 -0.06,5.1 -0.19,7.45 -0.13,2.35 -0.2,4.96 -0.2,7.83l0 14.9 0.39 33.3c0,6.79 0.26,13.19 0.78,19.2 0.53,6.01 1.44,11.49 2.75,16.46l0 -0.79c1.31,2.88 3.39,5.42 6.27,7.65 2.87,2.21 7.05,3.72 12.54,4.5 5.74,0.78 11.1,1.18 16.06,1.18 3.14,0.26 6.34,0.39 9.6,0.39 3.27,0 6.47,0 9.6,0l13.72 0c9.14,0 16.52,-0.33 22.13,-0.98 5.62,-0.66 9.47,-2.03 11.56,-4.12 3.66,-3.13 5.49,-13.58 5.49,-31.34l0 -6.27 -74.06 0 0 -51.72zm286.43 45.45c-3.39,-8.62 -6.53,-17.05 -9.4,-25.27 -2.87,-8.23 -5.75,-16.14 -8.62,-23.71 -1.31,-3.92 -2.42,-7.12 -3.33,-9.6 -0.92,-2.48 -1.77,-4.9 -2.55,-7.25 -0.78,-2.35 -1.76,-5.03 -2.94,-8.03 -1.17,-3.01 -2.68,-7.12 -4.5,-12.34 -2.62,7.31 -5.16,14.62 -7.64,21.94 -2.49,7.31 -5.16,14.5 -8.04,21.55 -1.57,4.18 -2.87,7.9 -3.92,11.17 -1.04,3.26 -2.15,6.46 -3.33,9.6 -1.17,3.13 -2.41,6.4 -3.72,9.79 -1.3,3.4 -2.74,7.45 -4.31,12.15l62.3 0zm17.63 50.15l-97.56 0c-2.88,7.58 -5.88,16 -9.01,25.28 -3.14,9.27 -6.01,17.3 -8.62,24.09l-59.17 0 96 -262.92 57.6 0 98.35 262.92 -58.78 0 -18.81 -49.37z"/>
  <path class="fil4" d="M470.57 1224.78c-3.25,-8.24 -6.24,-16.29 -8.99,-24.16 -2.75,-7.86 -5.49,-15.41 -8.24,-22.65 -1.25,-3.75 -2.31,-6.81 -3.18,-9.18 -0.88,-2.37 -1.69,-4.68 -2.44,-6.93 -0.75,-2.24 -1.68,-4.8 -2.81,-7.67 -1.12,-2.88 -2.56,-6.81 -4.3,-11.8 -2.5,6.99 -4.93,13.98 -7.31,20.97 -2.37,6.99 -4.93,13.86 -7.67,20.6 -1.5,3.99 -2.75,7.55 -3.75,10.67 -1,3.12 -2.06,6.18 -3.18,9.18 -1.12,2.99 -2.31,6.11 -3.56,9.36 -1.25,3.24 -2.62,7.11 -4.12,11.61l59.55 0zm16.85 47.93l-93.25 0c-2.75,7.24 -5.62,15.29 -8.61,24.16 -3,8.86 -5.74,16.54 -8.24,23.03l-56.55 0 91.75 -251.29 55.05 0 94 251.29 -56.18 0 -17.97 -47.19zm139.31 -89.5l46.06 0c17.48,0 29.71,-1.75 36.7,-5.24 2.25,-1 3.81,-3.75 4.68,-8.24 0.88,-4.5 1.31,-10.49 1.31,-17.98 0,-6.49 -0.24,-12.23 -0.74,-17.22 -0.5,-5 -1.63,-8.99 -3.37,-11.99 -2.25,-2.74 -8.62,-4.12 -19.1,-4.12l-65.54 0 0 64.79zm-51.68 136.69l0 -251.29 117.96 0c2,0 4.19,0 6.56,0 2.37,0 4.93,0.13 7.68,0.38 7.24,0.5 14.16,1.75 20.78,3.74 6.62,2 12.79,5.5 18.54,10.49 7.99,7.49 13.54,15.92 16.66,25.28 3.12,9.36 5.06,19.16 5.81,29.4l0 14.6c0,2.75 0,5.74 0,8.99 0,3.24 -0.13,6.24 -0.38,8.99 -0.75,7.49 -2.49,14.91 -5.24,22.28 -2.75,7.36 -6.99,13.92 -12.73,19.66 -4.5,4.74 -9.24,8.36 -14.23,10.86 -5,2.5 -10.11,4.37 -15.36,5.62 -5.24,1.25 -10.67,2.06 -16.29,2.43 -5.61,0.38 -11.17,0.56 -16.66,0.56 -0.5,0 -1,0.07 -1.5,0.19 -0.5,0.12 -1,0.19 -1.5,0.19l-58.42 0 0 87.63 -51.68 0zm271.88 -136.69l46.06 0c17.48,0 29.71,-1.75 36.7,-5.24 2.25,-1 3.81,-3.75 4.69,-8.24 0.87,-4.5 1.31,-10.49 1.31,-17.98 0,-6.49 -0.25,-12.23 -0.75,-17.22 -0.5,-5 -1.63,-8.99 -3.37,-11.99 -2.25,-2.74 -8.62,-4.12 -19.1,-4.12l-65.54 0 0 64.79zm-51.68 136.69l0 -251.29 117.97 0c1.99,0 4.18,0 6.55,0 2.37,0 4.93,0.13 7.68,0.38 7.24,0.5 14.17,1.75 20.78,3.74 6.62,2 12.8,5.5 18.54,10.49 7.99,7.49 13.54,15.92 16.67,25.28 3.12,9.36 5.05,19.16 5.8,29.4l0 14.6c0,2.75 0,5.74 0,8.99 0,3.24 -0.13,6.24 -0.37,8.99 -0.75,7.49 -2.5,14.91 -5.25,22.28 -2.74,7.36 -6.99,13.92 -12.73,19.66 -4.49,4.74 -9.24,8.36 -14.23,10.86 -4.99,2.5 -10.11,4.37 -15.36,5.62 -5.24,1.25 -10.67,2.06 -16.29,2.43 -5.61,0.38 -11.17,0.56 -16.66,0.56 -0.5,0 -1,0.07 -1.5,0.19 -0.5,0.12 -1,0.19 -1.5,0.19l-58.42 0 0 87.63 -51.68 0zm503.69 -162.16l-51.3 0c-1.25,-21.47 -3.12,-33.33 -5.62,-35.57 -1.75,-2 -4.68,-3.44 -8.8,-4.31 -4.12,-0.87 -9.42,-1.31 -15.91,-1.31l-11.99 0c-2.24,0 -4.87,0.06 -7.86,0.19 -3,0.12 -6.24,0.31 -9.74,0.56l-4.12 0c-0.5,0 -0.87,0.06 -1.12,0.19 -0.25,0.12 -0.5,0.18 -0.75,0.18l0.37 0c-3.49,0.5 -6.61,1 -9.36,1.5 -2.74,0.5 -4.49,0.87 -5.24,1.13 -1.75,0.99 -3.06,2.55 -3.93,4.68 -0.88,2.12 -1.44,4.3 -1.69,6.55 -0.25,1.5 -0.44,3.24 -0.56,5.24 -0.13,2 -0.19,3.25 -0.19,3.75 0,10.73 1.12,17.72 3.37,20.97l0 -0.38c1.5,2 7.12,3.62 16.85,4.87 4.25,0.25 8.81,0.38 13.67,0.38 4.87,0 9.43,0 13.67,0 11.74,0.25 22.72,1.25 32.96,2.99 10.23,1.75 19.6,4 28.08,6.74 22.22,7.74 33.33,29.34 33.33,64.79 0,18.48 -2.99,34.95 -8.98,49.43 -6.99,16.48 -23.22,26.22 -48.69,29.22 -0.75,0 -1.56,0.06 -2.43,0.18 -0.88,0.13 -1.56,0.19 -2.06,0.19l-3.75 0c-1.24,0 -2.43,0.06 -3.56,0.19 -1.12,0.12 -2.3,0.18 -3.55,0.18 -1,0 -1.87,0 -2.62,0 -0.75,0 -1.75,0.13 -3,0.38 -3.49,0.25 -7.3,0.37 -11.42,0.37 -4.12,0 -7.93,0 -11.42,0 -25.22,0 -46.19,-3.24 -62.92,-9.73 -20.97,-7.74 -31.46,-29.09 -31.46,-64.04 0,-1 -0.06,-2 -0.18,-3 -0.13,-1 0.06,-2.24 0.56,-3.74l0 -5.99c0,-1.25 0.06,-3.44 0.19,-6.56 0.12,-3.12 0.18,-4.93 0.18,-5.43l51.31 0c0,25.22 1.5,40.07 4.49,44.57 3.75,2.99 13.74,4.49 29.96,4.49l20.98 0c7.98,0 14.54,-0.31 19.66,-0.94 5.11,-0.62 8.92,-1.81 11.42,-3.55 1.25,-1 2.31,-3.37 3.18,-7.12 0.87,-3.74 1.31,-9.24 1.31,-16.48 0,-11.73 -1.12,-18.72 -3.37,-20.97 -1.75,-1.75 -7.99,-3 -18.72,-3.74 -3,-0.25 -6.31,-0.38 -9.93,-0.38 -3.62,0 -6.93,0 -9.92,0 -12.23,-0.5 -23.72,-1.62 -34.46,-3.37 -10.73,-1.75 -20.72,-4.12 -29.95,-7.11 -23.72,-7.99 -35.58,-29.96 -35.58,-65.91 0,-33.21 9.36,-54.18 28.08,-62.92 16.73,-7.74 37.45,-11.61 62.17,-11.61l5.99 0c12.24,0 23.72,0.75 34.46,2.25 10.73,1.5 20.09,3.74 28.08,6.74 21.22,7.99 31.83,29.33 31.83,64.04l0 17.22zm134.07 -37.82l0 199.98 -53.55 0 0 -199.98 -72.65 0 0 -51.31 197.73 0 0 51.31 -71.53 0zm132.58 77.52l0.37 35.58c0.5,18.22 2.75,29.58 6.74,34.08 4.49,3.99 15.48,5.99 32.96,5.99 11.73,0 21.53,-0.5 29.39,-1.5 7.87,-1 13.92,-2.62 18.17,-4.87 5.49,-2.5 8.61,-14.6 9.36,-36.32l0 -27.34c0,-1.75 0.06,-3.37 0.19,-4.87 0.12,-1.5 0.18,-3.12 0.18,-4.87l0 -36.7c0,-21.47 -2.37,-33.46 -7.11,-35.95 -7.99,-3.75 -22.85,-5.62 -44.57,-5.62l-7.86 0c-16.23,0 -26.71,1.87 -31.46,5.62 -3.24,2.99 -5.12,14.73 -5.62,35.2l-0.74 41.57zm-53.18 -11.98c0,-31.96 3.37,-58.43 10.11,-79.4 8.24,-26.21 33.7,-39.32 76.39,-39.32l11.61 0c32.46,0 57.18,4.25 74.15,12.73 20.48,10.24 30.71,35.58 30.71,76.03l0 16.1c0,10.49 0,21.16 0,32.02 0,10.86 -0.12,21.53 -0.37,32.02 -0.5,14.98 -2.5,28.15 -5.99,39.51 -3.5,11.36 -8.49,20.41 -14.98,27.15 -12.74,13.48 -35.45,20.22 -68.16,20.22l-11.24 0c-1.99,-0.25 -3.62,-0.37 -4.86,-0.37 -1.25,0 -2.5,0 -3.75,0 -13.73,0 -25.96,-1.25 -36.7,-3.75 -10.74,-2.49 -19.97,-5.87 -27.71,-10.11 -17.48,-10.74 -27.09,-32.58 -28.84,-65.54 -0.25,-7.24 -0.37,-14.66 -0.37,-22.28 0,-7.61 0,-15.04 0,-22.28l0 -12.73zm285.36 -4.12l58.8 0c7.49,0 13.6,-0.5 18.35,-1.5 4.74,-1 8.24,-2.25 10.48,-3.75 3.75,-2.99 5.62,-10.61 5.62,-22.84 0,-13.73 -1.12,-22.84 -3.37,-27.34 -2.25,-4.99 -9.61,-7.49 -22.09,-7.49l-67.79 0 0 62.92zm-52.43 138.56l0 -251.29 119.84 0c13.98,0 25.96,1.38 35.95,4.12 9.99,2.75 18.23,7.18 24.72,13.3 6.49,6.12 11.3,14.23 14.42,24.34 3.12,10.11 4.68,22.41 4.68,36.89 0,7.99 -0.5,15.6 -1.5,22.84 -1,7.24 -2.37,13.73 -4.12,19.47 -2.25,6.5 -6.24,12.11 -11.98,16.86 4.99,5.24 8.67,11.48 11.04,18.72 2.38,7.24 3.56,15.23 3.56,23.97l0 70.78 -53.55 0 0 -65.16c0,-9.49 -2.25,-15.98 -6.74,-19.48 -4.49,-3.49 -11.61,-5.24 -21.35,-5.24l-62.54 0 0 89.88 -52.43 0zm274.13 -201.1l0 47.93 113.85 0 0 49.06 -113.85 0 0 55.05 118.72 0 0 49.06 -170.77 0 0 -251.29 170.77 0 0 50.19 -118.72 0z"/>
  <path class="fil5" d="M531.46 856.27l-53.68 0c-1.3,-22.47 -3.26,-34.87 -5.87,-37.22 -1.83,-2.1 -4.9,-3.6 -9.21,-4.51 -4.31,-0.92 -9.86,-1.37 -16.65,-1.37l-12.54 0c-2.35,0 -5.1,0.06 -8.23,0.19 -3.14,0.13 -6.53,0.33 -10.19,0.59l-4.31 0c-0.52,0 -0.92,0.07 -1.18,0.2 -0.26,0.13 -0.52,0.19 -0.78,0.19l0.39 0c-3.65,0.52 -6.92,1.05 -9.79,1.57 -2.88,0.52 -4.71,0.91 -5.49,1.18 -1.83,1.04 -3.2,2.67 -4.11,4.89 -0.92,2.22 -1.51,4.51 -1.77,6.86 -0.26,1.57 -0.45,3.4 -0.58,5.49 -0.13,2.08 -0.2,3.39 -0.2,3.92 0,11.23 1.17,18.54 3.53,21.94l0 -0.39c1.56,2.08 7.44,3.78 17.63,5.09 4.44,0.26 9.21,0.39 14.3,0.39 5.09,0 9.86,0 14.3,0 12.28,0.26 23.77,1.31 34.48,3.14 10.71,1.82 20.51,4.18 29.39,7.05 23.25,8.1 34.88,30.69 34.88,67.79 0,19.33 -3.14,36.57 -9.41,51.72 -7.31,17.24 -24.29,27.43 -50.94,30.56 -0.78,0 -1.63,0.07 -2.54,0.2 -0.92,0.13 -1.64,0.19 -2.16,0.19l-3.92 0c-1.3,0 -2.55,0.07 -3.72,0.2 -1.18,0.13 -2.42,0.19 -3.72,0.19 -1.05,0 -1.96,0 -2.75,0 -0.78,0 -1.82,0.13 -3.13,0.4 -3.66,0.26 -7.64,0.39 -11.95,0.39 -4.31,0 -8.29,0 -11.95,0 -26.39,0 -48.33,-3.4 -65.83,-10.19 -21.94,-8.1 -32.91,-30.43 -32.91,-67 0,-1.05 -0.07,-2.09 -0.2,-3.14 -0.13,-1.04 0.07,-2.35 0.59,-3.92l0 -6.27c0,-1.3 0.06,-3.59 0.19,-6.85 0.13,-3.27 0.2,-5.16 0.2,-5.68l53.68 0c0,26.38 1.57,41.92 4.7,46.62 3.92,3.14 14.37,4.71 31.35,4.71l21.94 0c8.36,0 15.22,-0.33 20.57,-0.98 5.36,-0.66 9.34,-1.9 11.95,-3.73 1.31,-1.04 2.42,-3.52 3.34,-7.44 0.91,-3.92 1.37,-9.67 1.37,-17.24 0,-12.28 -1.18,-19.59 -3.53,-21.94 -1.83,-1.83 -8.36,-3.14 -19.59,-3.92 -3.14,-0.26 -6.6,-0.39 -10.38,-0.39 -3.79,0 -7.25,0 -10.39,0 -12.8,-0.53 -24.81,-1.7 -36.05,-3.53 -11.23,-1.83 -21.68,-4.31 -31.35,-7.45 -24.81,-8.35 -37.22,-31.34 -37.22,-68.96 0,-34.74 9.8,-56.68 29.39,-65.83 17.5,-8.09 39.18,-12.14 65.04,-12.14l6.27 0c12.8,0 24.82,0.78 36.05,2.35 11.23,1.57 21.03,3.92 29.39,7.05 22.2,8.36 33.3,30.69 33.3,67.01l0 18.02z"/>
  <path id="_1_0" class="fil5" d="M692.51 926.41c-3.4,-8.62 -6.53,-17.05 -9.4,-25.28 -2.88,-8.22 -5.75,-16.13 -8.63,-23.7 -1.3,-3.92 -2.41,-7.12 -3.33,-9.6 -0.91,-2.48 -1.76,-4.9 -2.54,-7.25 -0.79,-2.35 -1.77,-5.03 -2.94,-8.03 -1.18,-3.01 -2.68,-7.12 -4.51,-12.35 -2.61,7.32 -5.16,14.63 -7.64,21.95 -2.48,7.31 -5.16,14.49 -8.03,21.55 -1.57,4.18 -2.87,7.9 -3.92,11.16 -1.05,3.27 -2.16,6.47 -3.33,9.6 -1.18,3.14 -2.42,6.4 -3.72,9.8 -1.31,3.4 -2.75,7.45 -4.31,12.15l62.3 0zm17.63 50.15l-97.57 0c-2.87,7.58 -5.87,16 -9.01,25.28 -3.13,9.27 -6.01,17.3 -8.62,24.09l-59.16 0 95.99 -262.92 57.6 0 98.35 262.92 -58.77 0 -18.81 -49.37z"/>
  <path id="_2_1" class="fil5" d="M1091.79 763.01l0 262.92 -55.64 0 0 -157.51c-4.44,10.97 -8.95,21.94 -13.52,32.91 -4.57,10.97 -9.08,21.94 -13.52,32.91l0.39 0c-6.01,14.89 -12.28,30.3 -18.81,46.24 -6.53,15.93 -12.8,31.08 -18.81,45.45l-45.45 0 -65.04 -155.16 0 155.16 -54.47 0 0 -262.92 69.75 0 72.49 176.33c12.02,-28.74 24.23,-58.32 36.63,-88.75 12.41,-30.43 24.37,-59.63 35.86,-87.58l70.14 0z"/>
  <polygon id="_3_2" class="fil5" points="1439.73,763.01 1439.73,807.68 1308.47,974.21 1443.26,974.21 1443.26,1025.93 1231.67,1025.93 1231.67,983.22 1362.94,816.69 1235.98,816.69 1235.98,763.01 "/>
  <path id="_4_3" class="fil5" d="M1628.6 763.01l55.25 0 0 178.29c0,14.1 -1.51,26.25 -4.51,36.44 -3,10.19 -7.25,18.81 -12.73,25.86 -12.28,14.1 -33.31,21.81 -63.09,23.12 -4.18,0.26 -8.68,0.45 -13.52,0.58 -4.83,0.13 -9.34,0.2 -13.51,0.2 -15.42,0 -29.26,-1.05 -41.54,-3.13 -12.28,-2.09 -22.86,-4.97 -31.74,-8.62l0.39 0.39c-22.46,-8.88 -33.69,-33.83 -33.69,-74.84l0 -178.29 55.64 0 0 178.29c0,15.67 1.96,25.2 5.87,28.6l-0.78 -0.39c4.97,3.92 15.28,5.88 30.96,5.88l25.46 0c9.15,0 16.59,-0.33 22.34,-0.98 5.75,-0.66 10.06,-2.03 12.93,-4.12 4.18,-3.39 6.27,-13.06 6.27,-28.99l0 -178.29z"/>
  <path id="_5_4" class="fil5" d="M1811.19 880.95l127.35 0c1.3,9.93 2.02,17.31 2.15,22.14 0.14,4.84 0.2,9.08 0.2,12.74l0 21.55c0,20.37 -2.87,38.4 -8.62,54.07 -3.66,9.93 -9.73,17.7 -18.22,23.32 -8.49,5.61 -20.05,9.33 -34.68,11.16 -7.83,0.79 -15.93,1.31 -24.29,1.57 -8.36,0.26 -16.72,0.39 -25.08,0.39 -41.79,0 -70.53,-6.66 -86.2,-19.98 -16.98,-13.85 -25.47,-41.14 -25.47,-81.89 0,-5.49 0,-10.98 0,-16.46 0,-5.49 0.13,-11.1 0.39,-16.85l0 -30.96c0,-33.95 6.92,-59.03 20.77,-75.23 7.31,-8.36 17.3,-14.63 29.97,-18.81 12.67,-4.17 27.63,-6.27 44.87,-6.27 4.96,0 9.79,0 14.5,0 4.7,0 9.53,0.13 14.49,0.4l6.27 0 7.06 0 14.1 0c25.6,0.78 43.56,7.64 53.88,20.57 10.32,12.93 15.48,31.28 15.48,55.05l0 23.12 -54.86 0c0,-21.94 -1.44,-35.66 -4.31,-41.14 -1.31,-2.62 -6.79,-4.18 -16.46,-4.71 -8.09,-0.52 -16,-0.84 -23.7,-0.98 -7.71,-0.13 -15.74,-0.19 -24.1,-0.19 -20.12,0 -32,2.09 -35.66,6.27 -3.65,4.44 -5.74,18.94 -6.27,43.49 0,2.62 -0.06,5.1 -0.19,7.45 -0.13,2.35 -0.2,4.96 -0.2,7.83l0 14.89 0.39 33.31c0,6.79 0.26,13.19 0.79,19.2 0.52,6.01 1.43,11.49 2.74,16.46l0 -0.79c1.31,2.87 3.4,5.42 6.27,7.64 2.87,2.22 7.05,3.72 12.54,4.51 5.74,0.78 11.1,1.18 16.06,1.18 3.14,0.26 6.34,0.39 9.6,0.39 3.27,0 6.47,0 9.6,0l13.72 0c9.14,0 16.52,-0.33 22.14,-0.98 5.61,-0.66 9.46,-2.03 11.55,-4.12 3.66,-3.13 5.49,-13.58 5.49,-31.35l0 -6.26 -74.06 0 0 -51.73z"/>
  <path id="_6_5" class="fil5" d="M2097.62 926.41c-3.39,-8.62 -6.53,-17.05 -9.4,-25.28 -2.87,-8.22 -5.75,-16.13 -8.62,-23.7 -1.31,-3.92 -2.42,-7.12 -3.33,-9.6 -0.92,-2.48 -1.76,-4.9 -2.55,-7.25 -0.78,-2.35 -1.76,-5.03 -2.94,-8.03 -1.17,-3.01 -2.67,-7.12 -4.5,-12.35 -2.62,7.32 -5.16,14.63 -7.64,21.95 -2.49,7.31 -5.16,14.49 -8.04,21.55 -1.56,4.18 -2.87,7.9 -3.91,11.16 -1.05,3.27 -2.16,6.47 -3.34,9.6 -1.17,3.14 -2.41,6.4 -3.72,9.8 -1.3,3.4 -2.74,7.45 -4.31,12.15l62.3 0zm17.64 50.15l-97.57 0c-2.87,7.58 -5.88,16 -9.01,25.28 -3.14,9.27 -6.01,17.3 -8.62,24.09l-59.17 0 96 -262.92 57.6 0 98.35 262.92 -58.78 0 -18.8 -49.37z"/>
  <path class="fil6" d="M480.32 1222.55c-3.25,-8.24 -6.24,-16.29 -8.99,-24.16 -2.74,-7.86 -5.49,-15.41 -8.24,-22.65 -1.25,-3.75 -2.31,-6.81 -3.18,-9.18 -0.87,-2.37 -1.69,-4.68 -2.44,-6.93 -0.75,-2.24 -1.68,-4.8 -2.8,-7.67 -1.13,-2.88 -2.56,-6.81 -4.31,-11.8 -2.5,6.99 -4.93,13.98 -7.3,20.97 -2.38,6.99 -4.93,13.86 -7.68,20.6 -1.5,3.99 -2.75,7.55 -3.75,10.67 -1,3.12 -2.06,6.18 -3.18,9.18 -1.12,2.99 -2.31,6.11 -3.56,9.36 -1.25,3.25 -2.62,7.11 -4.12,11.61l59.55 0zm16.85 47.93l-93.25 0c-2.74,7.24 -5.62,15.3 -8.61,24.16 -3,8.86 -5.74,16.54 -8.24,23.03l-56.55 0 91.75 -251.28 55.05 0 94 251.28 -56.17 0 -17.98 -47.19z"/>
  <path id="_1_6" class="fil6" d="M636.48 1180.98l46.06 0c17.48,0 29.71,-1.75 36.7,-5.24 2.25,-1 3.81,-3.75 4.68,-8.24 0.88,-4.5 1.32,-10.49 1.32,-17.98 0,-6.49 -0.25,-12.23 -0.75,-17.22 -0.5,-5 -1.63,-8.99 -3.37,-11.99 -2.25,-2.74 -8.62,-4.12 -19.1,-4.12l-65.54 0 0 64.79zm-51.68 136.69l0 -251.28 117.97 0c1.99,0 4.18,0 6.55,0 2.37,0 4.93,0.12 7.68,0.37 7.24,0.5 14.17,1.75 20.78,3.74 6.62,2 12.8,5.5 18.54,10.49 7.99,7.49 13.54,15.92 16.66,25.28 3.12,9.36 5.06,19.16 5.81,29.4l0 14.6c0,2.75 0,5.74 0,8.99 0,3.24 -0.13,6.24 -0.37,8.99 -0.76,7.49 -2.5,14.91 -5.25,22.28 -2.74,7.36 -6.99,13.92 -12.73,19.66 -4.5,4.74 -9.24,8.36 -14.23,10.86 -4.99,2.5 -10.11,4.37 -15.36,5.62 -5.24,1.25 -10.67,2.06 -16.29,2.43 -5.61,0.38 -11.17,0.56 -16.66,0.56 -0.5,0 -1,0.07 -1.5,0.19 -0.5,0.13 -1,0.19 -1.5,0.19l-58.42 0 0 87.63 -51.68 0z"/>
  <path id="_2_7" class="fil6" d="M856.68 1180.98l46.07 0c17.47,0 29.71,-1.75 36.7,-5.24 2.24,-1 3.8,-3.75 4.68,-8.24 0.87,-4.5 1.31,-10.49 1.31,-17.98 0,-6.49 -0.25,-12.23 -0.75,-17.22 -0.5,-5 -1.62,-8.99 -3.37,-11.99 -2.25,-2.74 -8.62,-4.12 -19.1,-4.12l-65.54 0 0 64.79zm-51.68 136.69l0 -251.28 117.97 0c2,0 4.18,0 6.55,0 2.37,0 4.93,0.12 7.68,0.37 7.24,0.5 14.17,1.75 20.78,3.74 6.62,2 12.8,5.5 18.54,10.49 7.99,7.49 13.54,15.92 16.67,25.28 3.12,9.36 5.05,19.16 5.8,29.4l0 14.6c0,2.75 0,5.74 0,8.99 0,3.24 -0.12,6.24 -0.37,8.99 -0.75,7.49 -2.5,14.91 -5.25,22.28 -2.74,7.36 -6.99,13.92 -12.73,19.66 -4.49,4.74 -9.24,8.36 -14.23,10.86 -4.99,2.5 -10.11,4.37 -15.35,5.62 -5.25,1.25 -10.68,2.06 -16.29,2.43 -5.62,0.38 -11.18,0.56 -16.67,0.56 -0.5,0 -1,0.07 -1.5,0.19 -0.5,0.13 -1,0.19 -1.5,0.19l-58.42 0 0 87.63 -51.68 0z"/>
  <path id="_3_8" class="fil6" d="M1308.7 1155.51l-51.31 0c-1.25,-21.47 -3.12,-33.32 -5.62,-35.57 -1.75,-2 -4.68,-3.44 -8.8,-4.31 -4.12,-0.87 -9.42,-1.31 -15.91,-1.31l-11.99 0c-2.24,0 -4.87,0.06 -7.86,0.19 -3,0.12 -6.24,0.31 -9.74,0.56l-4.12 0c-0.5,0 -0.87,0.06 -1.12,0.19 -0.25,0.12 -0.5,0.18 -0.75,0.18l0.38 0c-3.5,0.5 -6.62,1 -9.37,1.5 -2.74,0.5 -4.49,0.87 -5.24,1.13 -1.75,0.99 -3.06,2.56 -3.93,4.68 -0.88,2.12 -1.44,4.3 -1.69,6.55 -0.25,1.5 -0.43,3.24 -0.56,5.24 -0.13,2 -0.19,3.25 -0.19,3.75 0,10.73 1.13,17.72 3.37,20.97l0 -0.37c1.5,1.99 7.12,3.61 16.85,4.86 4.25,0.25 8.81,0.38 13.67,0.38 4.87,0 9.43,0 13.67,0 11.74,0.25 22.72,1.25 32.96,2.99 10.23,1.75 19.6,4 28.09,6.75 22.22,7.73 33.32,29.33 33.32,64.78 0,18.48 -2.99,34.95 -8.98,49.44 -6.99,16.47 -23.22,26.21 -48.69,29.21 -0.75,0 -1.56,0.06 -2.43,0.18 -0.87,0.13 -1.56,0.19 -2.06,0.19l-3.75 0c-1.24,0 -2.43,0.06 -3.55,0.19 -1.13,0.12 -2.31,0.18 -3.56,0.18 -1,0 -1.87,0 -2.62,0 -0.75,0 -1.75,0.13 -3,0.38 -3.49,0.25 -7.3,0.37 -11.42,0.37 -4.12,0 -7.93,0 -11.42,0 -25.22,0 -46.19,-3.24 -62.92,-9.73 -20.97,-7.74 -31.45,-29.09 -31.45,-64.04 0,-1 -0.07,-2 -0.19,-3 -0.13,-1 0.06,-2.24 0.56,-3.74l0 -5.99c0,-1.25 0.06,-3.44 0.19,-6.56 0.12,-3.12 0.18,-4.93 0.18,-5.43l51.31 0c0,25.22 1.5,40.07 4.49,44.57 3.75,2.99 13.74,4.49 29.96,4.49l20.98 0c7.98,0 14.54,-0.31 19.66,-0.94 5.12,-0.62 8.92,-1.81 11.42,-3.55 1.25,-1 2.31,-3.37 3.18,-7.12 0.87,-3.74 1.31,-9.24 1.31,-16.48 0,-11.73 -1.12,-18.72 -3.37,-20.97 -1.75,-1.75 -7.99,-2.99 -18.72,-3.74 -3,-0.25 -6.31,-0.38 -9.93,-0.38 -3.62,0 -6.92,0 -9.92,0 -12.23,-0.5 -23.72,-1.62 -34.46,-3.37 -10.73,-1.75 -20.72,-4.12 -29.95,-7.11 -23.72,-7.99 -35.58,-29.96 -35.58,-65.91 0,-33.21 9.36,-54.18 28.09,-62.92 16.72,-7.74 37.44,-11.61 62.16,-11.61l5.99 0c12.24,0 23.72,0.75 34.46,2.25 10.73,1.5 20.1,3.74 28.09,6.74 21.22,7.99 31.83,29.34 31.83,64.04l0 17.22z"/>
  <polygon id="_4_9" class="fil6" points="1442.77,1117.69 1442.77,1317.67 1389.21,1317.67 1389.21,1117.69 1316.56,1117.69 1316.56,1066.39 1514.29,1066.39 1514.29,1117.69 "/>
  <path id="_5_10" class="fil6" d="M1575.34 1195.21l0.37 35.58c0.5,18.22 2.75,29.58 6.74,34.08 4.5,3.99 15.48,5.99 32.96,5.99 11.73,0 21.53,-0.5 29.4,-1.5 7.86,-1 13.91,-2.62 18.16,-4.87 5.49,-2.49 8.61,-14.6 9.36,-36.32l0 -27.34c0,-1.75 0.06,-3.37 0.19,-4.87 0.12,-1.5 0.18,-3.12 0.18,-4.87l0 -36.7c0,-21.47 -2.37,-33.45 -7.11,-35.95 -7.99,-3.75 -22.84,-5.62 -44.57,-5.62l-7.86 0c-16.23,0 -26.71,1.87 -31.46,5.62 -3.24,2.99 -5.12,14.73 -5.61,35.2l-0.75 41.57zm-53.18 -11.98c0,-31.96 3.37,-58.42 10.11,-79.4 8.24,-26.21 33.7,-39.32 76.4,-39.32l11.61 0c32.45,0 57.17,4.25 74.14,12.73 20.48,10.24 30.71,35.58 30.71,76.03l0 16.1c0,10.49 0,21.16 0,32.02 0,10.86 -0.12,21.53 -0.37,32.02 -0.5,14.98 -2.5,28.15 -5.99,39.51 -3.5,11.36 -8.49,20.41 -14.98,27.15 -12.73,13.48 -35.45,20.22 -68.16,20.22l-11.24 0c-1.99,-0.25 -3.61,-0.37 -4.86,-0.37 -1.25,0 -2.5,0 -3.75,0 -13.73,0 -25.96,-1.25 -36.7,-3.75 -10.73,-2.49 -19.97,-5.86 -27.71,-10.11 -17.48,-10.74 -27.09,-32.58 -28.84,-65.54 -0.25,-7.24 -0.37,-14.66 -0.37,-22.28 0,-7.61 0,-15.04 0,-22.28l0 -12.73z"/>
  <path id="_6_11" class="fil6" d="M1807.52 1179.11l58.8 0c7.49,0 13.61,-0.5 18.35,-1.5 4.74,-1 8.24,-2.25 10.49,-3.74 3.74,-3 5.61,-10.62 5.61,-22.85 0,-13.73 -1.12,-22.84 -3.37,-27.34 -2.24,-4.99 -9.61,-7.49 -22.09,-7.49l-67.79 0 0 62.92zm-52.43 138.56l0 -251.28 119.84 0c13.98,0 25.97,1.37 35.95,4.11 9.99,2.75 18.23,7.18 24.72,13.3 6.49,6.12 11.3,14.23 14.42,24.34 3.12,10.11 4.68,22.41 4.68,36.89 0,7.99 -0.5,15.6 -1.5,22.84 -1,7.24 -2.37,13.73 -4.12,19.47 -2.24,6.5 -6.24,12.11 -11.98,16.86 4.99,5.24 8.67,11.48 11.04,18.72 2.38,7.24 3.56,15.23 3.56,23.97l0 70.78 -53.55 0 0 -65.16c0,-9.49 -2.25,-15.98 -6.74,-19.48 -4.49,-3.49 -11.61,-5.24 -21.35,-5.24l-62.54 0 0 89.88 -52.43 0z"/>
  <polygon id="_7_12" class="fil6" points="2029.22,1116.57 2029.22,1164.5 2143.07,1164.5 2143.07,1213.56 2029.22,1213.56 2029.22,1268.61 2147.94,1268.61 2147.94,1317.67 1977.17,1317.67 1977.17,1066.39 2147.94,1066.39 2147.94,1116.57 "/>
  <rect class="fil7" y="2015.1" width="4000" height="234.9"/>
  <rect class="fil8" y="2058.17" width="4000" height="191.83"/>
 </g>
</svg>
