<?xml version="1.0" encoding="UTF-8"?>
<!DOCTYPE svg PUBLIC "-//W3C//DTD SVG 1.1//EN" "http://www.w3.org/Graphics/SVG/1.1/DTD/svg11.dtd">
<!-- Creator: CorelDRAW 2021 (64-Bit) -->
<svg xmlns="http://www.w3.org/2000/svg" xml:space="preserve" width="4000px" height="2250px" version="1.1" style="shape-rendering:geometricPrecision; text-rendering:geometricPrecision; image-rendering:optimizeQuality; fill-rule:evenodd; clip-rule:evenodd"
viewBox="0 0 4000 2250"
 xmlns:xlink="http://www.w3.org/1999/xlink"
 xmlns:xodm="http://www.corel.com/coreldraw/odm/2003">
 <defs>
  <style type="text/css">
   <![CDATA[
    .fil1 {fill:none}
    .fil2 {fill:#85521F}
    .fil3 {fill:#996633}
    .fil0 {fill:white}
    .fil6 {fill:#FFCC00;fill-rule:nonzero}
    .fil5 {fill:white;fill-rule:nonzero}
    .fil4 {fill:black;fill-rule:nonzero;fill-opacity:0.321569}
   ]]>
  </style>
   <clipPath id="id0">
    <path d="M0 0l4000 0 0 2250 -4000 0 0 -2250z"/>
   </clipPath>
    <clipPath id="id1">
     <path d="M1684.03 0l2315.97 0 0 2250 -2315.97 0 0 -2250z"/>
    </clipPath>
    <clipPath id="id2">
     <path d="M0 0l4000 0 0 2250 -4000 0 0 -2250z"/>
    </clipPath>
    <clipPath id="id3">
     <path d="M2219.4 1532.08l1648.54 0 -52.58 251.3 -1648.54 0 52.58 -251.3z"/>
    </clipPath>
   <clipPath id="id4">
    <rect x="2284.14" y="344.9" width="1421.16" height="1421.15"/>
   </clipPath>
   <clipPath id="id5">
    <path d="M0 0l2501.73 0c-906.31,674.83 -444.55,2062.26 0,2250l-2501.73 0 0 -2250z"/>
   </clipPath>
    <clipPath id="id6">
     <path d="M0 0l2501.73 0c-906.31,674.83 -444.55,2062.26 0,2250l-2501.73 0 0 -2250z"/>
    </clipPath>
    <clipPath id="id7">
     <path d="M0 0l2501.73 0c-906.31,674.83 -444.55,2062.26 0,2250l-2501.73 0 0 -2250z"/>
    </clipPath>
 </defs>
 <g id="Layer_x0020_1">
  <metadata id="CorelCorpID_0Corel-Layer"/>
  <polygon class="fil0" points="0,0 4000,0 4000,2250 0,2250 "/>
  <g style="clip-path:url(#id0)">
   <g id="_1888252016464">
   </g>
   <g style="clip-path:url(#id1)">
    <image x="1684.03" y="-351.78" width="2921.4" height="2921.4" xlink:href="Cover page_Images\Cover page_ImgID1.png"/>
   </g>
   <g style="clip-path:url(#id2)">
   </g>
  </g>
  <polygon class="fil1" points="0,0 4000,0 4000,2250 0,2250 "/>
  <g id="_1888252015984">
   <g style="clip-path:url(#id3)">
    <image x="2166.82" y="1532.08" width="1701.12" height="251.31" xlink:href="Cover page_Images\Cover page_ImgID2.png"/>
   </g>
  </g>
  <g style="clip-path:url(#id4)">
   <image x="2284.14" y="344.9" width="1421.15" height="1421.15" xlink:href="Cover page_Images\Cover page_ImgID3.png"/>
  </g>
  <path class="fil2" d="M0 0l2587.19 0c-779.04,722.82 -395.19,1923.64 0,2250l-2587.19 0 0 -2250z"/>
  <path class="fil3" d="M0 0l2501.73 0c-906.31,674.83 -444.55,2062.26 0,2250l-2501.73 0 0 -2250z"/>
  <g style="clip-path:url(#id5)">
   <g id="_1888252018336">
   </g>
   <g style="clip-path:url(#id6)">
    <image x="-299.58" y="-198.73" width="2856.18" height="2856.18" xlink:href="Cover page_Images\Cover page_ImgID4.png"/>
   </g>
   <g style="clip-path:url(#id7)">
   </g>
  </g>
  <path class="fil1" d="M0 0l2501.73 0c-906.31,674.83 -444.55,2062.26 0,2250l-2501.73 0 0 -2250z"/>
  <path class="fil4" d="M652.04 582.89l-103.57 0c-2.52,-43.35 -6.3,-67.29 -11.34,-71.82 -3.53,-4.04 -9.45,-6.93 -17.76,-8.7 -8.32,-1.76 -19.03,-2.64 -32.13,-2.64l-24.2 0c-4.53,0 -9.82,0.12 -15.87,0.38 -6.05,0.25 -12.6,0.63 -19.66,1.13l-8.31 0c-1.01,0 -1.77,0.13 -2.27,0.38 -0.51,0.25 -1.01,0.38 -1.51,0.38l0.75 0c-7.06,1 -13.36,2.01 -18.9,3.02 -5.54,1.01 -9.07,1.76 -10.58,2.27 -3.53,2.01 -6.18,5.16 -7.94,9.45 -1.76,4.28 -2.9,8.69 -3.4,13.23 -0.51,3.02 -0.88,6.55 -1.14,10.58 -0.25,4.03 -0.37,6.55 -0.37,7.56 0,21.67 2.26,35.79 6.8,42.34l0 -0.76c3.02,4.03 14.36,7.31 34.02,9.83 8.57,0.5 17.77,0.76 27.59,0.76 9.83,0 19.03,0 27.6,0 23.69,0.5 45.86,2.52 66.53,6.04 20.66,3.53 39.56,8.07 56.7,13.61 44.85,15.63 67.28,59.22 67.28,130.79 0,37.3 -6.05,70.56 -18.14,99.79 -14.11,33.27 -46.88,52.93 -98.28,58.97 -1.52,0 -3.15,0.13 -4.92,0.38 -1.76,0.25 -3.15,0.38 -4.16,0.38l-7.56 0c-2.52,0 -4.91,0.12 -7.18,0.38 -2.27,0.25 -4.66,0.37 -7.18,0.37 -2.01,0 -3.78,0 -5.29,0 -1.51,0 -3.53,0.26 -6.05,0.76 -7.06,0.5 -14.74,0.76 -23.06,0.76 -8.31,0 -16,0 -23.06,0 -50.9,0 -93.24,-6.56 -127.01,-19.66 -42.33,-15.62 -63.5,-58.72 -63.5,-129.28 0,-2.01 -0.13,-4.03 -0.38,-6.05 -0.25,-2.01 0.13,-4.53 1.14,-7.55l0 -12.1c0,-2.52 0.12,-6.93 0.37,-13.23 0.26,-6.3 0.38,-9.95 0.38,-10.96l103.57 0c0,50.9 3.03,80.89 9.08,89.96 7.56,6.05 27.72,9.07 60.48,9.07l42.33 0c16.13,0 29.36,-0.63 39.69,-1.89 10.34,-1.26 18.02,-3.65 23.06,-7.18 2.52,-2.01 4.67,-6.8 6.43,-14.36 1.76,-7.56 2.64,-18.65 2.64,-33.27 0,-23.68 -2.26,-37.8 -6.8,-42.33 -3.53,-3.53 -16.13,-6.05 -37.8,-7.56 -6.05,-0.51 -12.73,-0.76 -20.03,-0.76 -7.31,0 -13.99,0 -20.04,0 -24.7,-1.01 -47.88,-3.28 -69.55,-6.8 -21.67,-3.53 -41.83,-8.32 -60.48,-14.37 -47.88,-16.13 -71.82,-60.48 -71.82,-133.05 0,-67.04 18.9,-109.37 56.7,-127.01 33.77,-15.63 75.6,-23.44 125.5,-23.44l12.09 0c24.7,0 47.88,1.51 69.56,4.54 21.67,3.02 40.57,7.56 56.7,13.6 42.84,16.13 64.25,59.23 64.25,129.28l0 34.78zm310.72 135.32c-6.55,-16.63 -12.6,-32.88 -18.14,-48.76 -5.55,-15.87 -11.09,-31.12 -16.63,-45.74 -2.52,-7.56 -4.66,-13.73 -6.43,-18.52 -1.76,-4.79 -3.4,-9.45 -4.91,-13.99 -1.51,-4.53 -3.4,-9.7 -5.67,-15.49 -2.27,-5.8 -5.17,-13.74 -8.7,-23.82 -5.04,14.11 -9.95,28.23 -14.74,42.34 -4.79,14.11 -9.95,27.97 -15.5,41.58 -3.02,8.06 -5.54,15.25 -7.56,21.54 -2.01,6.3 -4.16,12.48 -6.42,18.53 -2.27,6.04 -4.66,12.35 -7.18,18.9 -2.53,6.55 -5.3,14.36 -8.32,23.43l120.2 0zm34.02 96.77l-188.24 0c-5.55,14.62 -11.34,30.87 -17.39,48.77 -6.05,17.89 -11.59,33.38 -16.63,46.49l-114.16 0 185.22 -507.28 111.14 0 189.75 507.28 -113.4 0 -36.29 -95.26zm736.35 -412.02l0 507.28 -107.35 0 0 -303.92c-8.57,21.17 -17.26,42.34 -26.08,63.51 -8.82,21.17 -17.51,42.34 -26.08,63.5l0.75 0c-11.59,28.73 -23.68,58.47 -36.28,89.21 -12.61,30.75 -24.7,59.98 -36.29,87.7l-87.7 0 -125.5 -299.38 0 299.38 -105.08 0 0 -507.28 134.57 0 139.86 340.2c23.18,-55.44 46.74,-112.52 70.68,-171.23 23.95,-58.72 47,-115.04 69.18,-168.97l135.32 0z"/>
  <path class="fil4" d="M395.51 960.52l0 29.74 -77.01 110.83 79.08 0 0 34.43 -124.14 0 0 -28.43 77.02 -110.84 -74.49 0 0 -35.73 119.54 0zm110.81 0l32.42 0 0 118.67c0,9.39 -0.89,17.47 -2.65,24.25 -1.76,6.78 -4.25,12.52 -7.47,17.21 -7.21,9.39 -19.54,14.52 -37.01,15.39 -2.45,0.18 -5.1,0.31 -7.93,0.39 -2.84,0.09 -5.48,0.13 -7.93,0.13 -9.05,0 -17.17,-0.69 -24.37,-2.08 -7.21,-1.39 -13.41,-3.31 -18.62,-5.74l0.22 0.26c-13.17,-5.91 -19.76,-22.52 -19.76,-49.81l0 -118.67 32.64 0 0 118.67c0,10.43 1.15,16.77 3.45,19.04l-0.46 -0.26c2.91,2.6 8.96,3.91 18.16,3.91l14.94 0c5.37,0 9.74,-0.22 13.1,-0.65 3.38,-0.44 5.9,-1.35 7.59,-2.74 2.45,-2.26 3.68,-8.7 3.68,-19.3l0 -118.67zm107.13 78.5l74.71 0c0.76,6.61 1.19,11.52 1.26,14.74 0.08,3.22 0.12,6.04 0.12,8.47l0 14.35c0,13.56 -1.69,25.56 -5.06,35.99 -2.14,6.61 -5.71,11.78 -10.69,15.52 -4.98,3.74 -11.76,6.21 -20.34,7.43 -4.6,0.52 -9.35,0.87 -14.26,1.04 -4.9,0.18 -9.81,0.26 -14.71,0.26 -24.52,0 -41.38,-4.43 -50.57,-13.3 -9.97,-9.21 -14.95,-27.38 -14.95,-54.5 0,-3.66 0,-7.31 0,-10.96 0,-3.65 0.08,-7.39 0.24,-11.21l0 -20.6c0,-22.61 4.06,-39.3 12.18,-50.08 4.29,-5.56 10.15,-9.74 17.58,-12.52 7.44,-2.78 16.21,-4.17 26.33,-4.17 2.91,0 5.74,0 8.5,0 2.76,0 5.59,0.09 8.51,0.26l3.68 0 4.13 0 8.28 0c15.02,0.52 25.55,5.09 31.61,13.69 6.05,8.61 9.08,20.82 9.08,36.65l0 15.38 -32.19 0c0,-14.6 -0.84,-23.73 -2.52,-27.38 -0.77,-1.74 -3.99,-2.78 -9.66,-3.13 -4.75,-0.35 -9.39,-0.57 -13.91,-0.65 -4.52,-0.09 -9.23,-0.13 -14.13,-0.13 -11.81,0 -18.78,1.39 -20.92,4.17 -2.15,2.96 -3.38,12.6 -3.68,28.95 0,1.74 -0.04,3.39 -0.12,4.95 -0.07,1.57 -0.11,3.31 -0.11,5.22l0 9.91 0.23 22.17c0,4.52 0.15,8.78 0.46,12.78 0.3,4 0.84,7.65 1.61,10.95l0 -0.52c0.76,1.91 1.99,3.61 3.67,5.08 1.69,1.48 4.14,2.48 7.36,3 3.37,0.53 6.51,0.79 9.43,0.79 1.84,0.17 3.71,0.26 5.63,0.26 1.92,0 3.79,0 5.63,0l8.05 0c5.36,0 9.69,-0.22 12.98,-0.65 3.3,-0.44 5.56,-1.35 6.79,-2.74 2.14,-2.09 3.21,-9.05 3.21,-20.87l0 -4.17 -43.44 0 0 -34.43zm168.04 30.26c-1.99,-5.74 -3.83,-11.35 -5.51,-16.82 -1.69,-5.48 -3.37,-10.74 -5.06,-15.78 -0.76,-2.61 -1.42,-4.74 -1.95,-6.39 -0.54,-1.65 -1.04,-3.26 -1.5,-4.83 -0.46,-1.56 -1.03,-3.34 -1.72,-5.34 -0.69,-2 -1.57,-4.74 -2.65,-8.22 -1.53,4.87 -3.02,9.74 -4.48,14.61 -1.46,4.86 -3.03,9.65 -4.71,14.34 -0.92,2.78 -1.69,5.26 -2.3,7.43 -0.61,2.18 -1.27,4.31 -1.95,6.39 -0.7,2.09 -1.42,4.26 -2.19,6.52 -0.76,2.26 -1.61,4.96 -2.53,8.09l36.55 0zm10.35 33.38l-57.24 0c-1.69,5.04 -3.45,10.65 -5.29,16.82 -1.84,6.17 -3.53,11.52 -5.06,16.04l-34.71 0 56.32 -175 33.8 0 57.69 175 -34.48 0 -11.03 -32.86zm334.03 -142.14l-48.28 175 -36.32 0 -29.89 -115.53c-1.99,7.47 -3.87,14.73 -5.63,21.77 -1.76,7.04 -3.64,14.3 -5.63,21.78 -1.53,5.56 -3.1,11.47 -4.71,17.73 -1.61,6.26 -3.22,12.52 -4.83,18.78 -1.61,6.26 -3.22,12.43 -4.83,18.52 -1.61,6.08 -3.1,11.73 -4.48,16.95l-35.87 0 -47.35 -175 33.79 0 31.04 118.15c5.05,-19.48 10.23,-39.34 15.51,-59.6 5.29,-20.25 10.39,-39.77 15.29,-58.55l35.63 0 30.58 117.89c2.14,-7.83 4.29,-15.74 6.43,-23.74 2.15,-8 4.3,-15.91 6.44,-23.73 1.38,-5.39 2.91,-11.13 4.6,-17.21 1.69,-6.09 3.37,-12.17 5.06,-18.26 1.68,-6.09 3.33,-12.08 4.94,-17.99 1.61,-5.92 3.1,-11.57 4.48,-16.96l34.03 0zm88.96 108.76c-1.99,-5.74 -3.83,-11.35 -5.51,-16.82 -1.69,-5.48 -3.38,-10.74 -5.06,-15.78 -0.77,-2.61 -1.42,-4.74 -1.96,-6.39 -0.53,-1.65 -1.03,-3.26 -1.49,-4.83 -0.46,-1.56 -1.04,-3.34 -1.73,-5.34 -0.69,-2 -1.57,-4.74 -2.64,-8.22 -1.53,4.87 -3.03,9.74 -4.48,14.61 -1.46,4.86 -3.03,9.65 -4.71,14.34 -0.92,2.78 -1.69,5.26 -2.3,7.43 -0.62,2.18 -1.27,4.31 -1.96,6.39 -0.69,2.09 -1.42,4.26 -2.18,6.52 -0.77,2.26 -1.61,4.96 -2.53,8.09l36.55 0zm10.35 33.38l-57.24 0c-1.69,5.04 -3.45,10.65 -5.29,16.82 -1.84,6.17 -3.53,11.52 -5.06,16.04l-34.71 0 56.32 -175 33.79 0 57.7 175 -34.48 0 -11.03 -32.86zm86.21 -142.14l0 139.79 69.65 0 0 35.21 -102.99 0 0 -175 33.34 0zm111.49 0l0 139.79 69.65 0 0 35.21 -102.99 0 0 -175 33.34 0zm104.14 34.95l0 33.38 69.88 0 0 34.17 -69.88 0 0 38.34 72.87 0 0 34.16 -104.83 0 0 -175 104.83 0 0 34.95 -72.87 0zm153.1 0.78l0 139.27 -32.87 0 0 -139.27 -44.6 0 0 -35.73 121.38 0 0 35.73 -43.91 0z"/>
  <path class="fil5" d="M672.9 582.14l-103.58 0c-2.52,-43.35 -6.3,-67.29 -11.34,-71.83 -3.52,-4.03 -9.45,-6.93 -17.76,-8.69 -8.32,-1.76 -19.03,-2.65 -32.13,-2.65l-24.19 0c-4.54,0 -9.83,0.13 -15.88,0.38 -6.05,0.25 -12.6,0.63 -19.66,1.14l-8.31 0c-1.01,0 -1.77,0.12 -2.27,0.37 -0.51,0.26 -1.01,0.38 -1.51,0.38l0.75 0c-7.05,1.01 -13.35,2.02 -18.9,3.03 -5.54,1 -9.07,1.76 -10.58,2.27 -3.53,2.01 -6.18,5.16 -7.94,9.44 -1.76,4.29 -2.9,8.7 -3.4,13.24 -0.51,3.02 -0.88,6.55 -1.14,10.58 -0.25,4.03 -0.37,6.55 -0.37,7.56 0,21.67 2.26,35.78 6.8,42.33l0 -0.75c3.03,4.03 14.36,7.31 34.02,9.83 8.57,0.5 17.77,0.75 27.6,0.75 9.82,0 19.02,0 27.59,0 23.69,0.51 45.86,2.52 66.53,6.05 20.66,3.53 39.56,8.06 56.7,13.61 44.85,15.62 67.28,59.22 67.28,130.79 0,37.29 -6.05,70.56 -18.14,99.79 -14.11,33.27 -46.87,52.92 -98.28,58.97 -1.51,0 -3.15,0.13 -4.92,0.38 -1.76,0.25 -3.15,0.38 -4.15,0.38l-7.57 0c-2.52,0 -4.91,0.12 -7.18,0.37 -2.26,0.26 -4.66,0.38 -7.18,0.38 -2.01,0 -3.78,0 -5.29,0 -1.51,0 -3.53,0.25 -6.05,0.76 -7.05,0.5 -14.74,0.75 -23.06,0.75 -8.31,0 -16,0 -23.05,0 -50.91,0 -93.25,-6.55 -127.01,-19.65 -42.34,-15.63 -63.51,-58.72 -63.51,-129.28 0,-2.02 -0.12,-4.03 -0.38,-6.05 -0.25,-2.01 0.13,-4.53 1.14,-7.56l0 -12.09c0,-2.52 0.12,-6.93 0.38,-13.23 0.25,-6.3 0.37,-9.96 0.37,-10.97l103.58 0c0,50.91 3.02,80.9 9.07,89.97 7.56,6.05 27.72,9.07 60.48,9.07l42.34 0c16.12,0 29.35,-0.63 39.69,-1.89 10.33,-1.26 18.01,-3.65 23.05,-7.18 2.52,-2.02 4.67,-6.8 6.43,-14.37 1.76,-7.56 2.65,-18.64 2.65,-33.26 0,-23.69 -2.27,-37.8 -6.81,-42.34 -3.53,-3.52 -16.13,-6.04 -37.8,-7.56 -6.05,-0.5 -12.72,-0.75 -20.03,-0.75 -7.31,0 -13.99,0 -20.04,0 -24.69,-1.01 -47.88,-3.28 -69.55,-6.8 -21.67,-3.53 -41.83,-8.32 -60.48,-14.37 -47.88,-16.13 -71.82,-60.48 -71.82,-133.06 0,-67.03 18.9,-109.37 56.7,-127.01 33.77,-15.62 75.6,-23.43 125.5,-23.43l12.09 0c24.7,0 47.88,1.51 69.56,4.53 21.67,3.03 40.57,7.56 56.7,13.61 42.84,16.13 64.26,59.22 64.26,129.28l0 34.78z"/>
  <path id="_1" class="fil5" d="M983.61 717.46c-6.55,-16.63 -12.59,-32.89 -18.14,-48.76 -5.54,-15.88 -11.09,-31.12 -16.63,-45.74 -2.52,-7.56 -4.66,-13.74 -6.43,-18.52 -1.76,-4.79 -3.4,-9.45 -4.91,-13.99 -1.51,-4.53 -3.4,-9.7 -5.67,-15.5 -2.27,-5.79 -5.17,-13.73 -8.7,-23.81 -5.03,14.11 -9.95,28.22 -14.74,42.33 -4.79,14.12 -9.95,27.98 -15.5,41.59 -3.02,8.06 -5.54,15.24 -7.56,21.54 -2.01,6.3 -4.15,12.47 -6.42,18.52 -2.27,6.05 -4.66,12.35 -7.18,18.9 -2.52,6.56 -5.3,14.37 -8.32,23.44l120.2 0zm34.03 96.77l-188.25 0c-5.54,14.62 -11.34,30.87 -17.39,48.76 -6.05,17.89 -11.59,33.39 -16.63,46.5l-114.16 0 185.22 -507.29 111.14 0 189.76 507.29 -113.41 0 -36.28 -95.26z"/>
  <path id="_2" class="fil5" d="M1753.99 402.2l0 507.29 -107.36 0 0 -303.92c-8.56,21.17 -17.26,42.34 -26.08,63.5 -8.82,21.17 -17.51,42.34 -26.08,63.51l0.75 0c-11.59,28.73 -23.68,58.47 -36.28,89.21 -12.6,30.74 -24.7,59.97 -36.29,87.7l-87.7 0 -125.5 -299.38 0 299.38 -105.08 0 0 -507.29 134.57 0 139.86 340.21c23.18,-55.44 46.75,-112.52 70.69,-171.24 23.94,-58.71 47,-115.04 69.17,-168.97l135.33 0z"/>
  <polygon class="fil6" points="416.37,959.77 416.37,989.5 339.35,1100.34 418.44,1100.34 418.44,1134.77 294.3,1134.77 294.3,1106.34 371.31,995.5 296.83,995.5 296.83,959.77 "/>
  <path id="_1_0" class="fil6" d="M527.17 959.77l32.42 0 0 118.67c0,9.38 -0.88,17.47 -2.65,24.25 -1.76,6.78 -4.25,12.52 -7.47,17.21 -7.2,9.39 -19.54,14.52 -37.01,15.39 -2.45,0.17 -5.1,0.3 -7.93,0.39 -2.84,0.09 -5.48,0.13 -7.93,0.13 -9.05,0 -17.17,-0.7 -24.37,-2.09 -7.21,-1.39 -13.41,-3.3 -18.62,-5.74l0.23 0.27c-13.18,-5.91 -19.77,-22.52 -19.77,-49.81l0 -118.67 32.64 0 0 118.67c0,10.43 1.15,16.77 3.45,19.03l-0.46 -0.26c2.91,2.61 8.97,3.91 18.16,3.91l14.94 0c5.37,0 9.74,-0.21 13.11,-0.65 3.37,-0.43 5.9,-1.35 7.58,-2.74 2.45,-2.26 3.68,-8.69 3.68,-19.29l0 -118.67z"/>
  <path id="_2_1" class="fil6" d="M634.3 1038.27l74.71 0c0.77,6.61 1.19,11.52 1.27,14.74 0.07,3.21 0.11,6.04 0.11,8.47l0 14.35c0,13.56 -1.68,25.56 -5.06,35.99 -2.14,6.6 -5.71,11.77 -10.69,15.51 -4.98,3.74 -11.76,6.22 -20.34,7.44 -4.6,0.52 -9.35,0.86 -14.26,1.04 -4.9,0.17 -9.8,0.26 -14.71,0.26 -24.52,0 -41.38,-4.43 -50.57,-13.3 -9.96,-9.21 -14.94,-27.38 -14.94,-54.51 0,-3.65 0,-7.3 0,-10.95 0,-3.65 0.07,-7.39 0.23,-11.22l0 -20.6c0,-22.6 4.06,-39.29 12.18,-50.07 4.29,-5.57 10.15,-9.74 17.59,-12.52 7.43,-2.78 16.2,-4.17 26.32,-4.17 2.91,0 5.74,0 8.5,0 2.76,0 5.6,0.08 8.51,0.26l3.68 0 4.13 0 8.28 0c15.02,0.52 25.56,5.08 31.61,13.69 6.05,8.61 9.08,20.82 9.08,36.64l0 15.39 -32.18 0c0,-14.6 -0.85,-23.73 -2.53,-27.38 -0.77,-1.74 -3.99,-2.79 -9.66,-3.13 -4.75,-0.35 -9.39,-0.57 -13.91,-0.66 -4.52,-0.08 -9.23,-0.12 -14.13,-0.12 -11.8,0 -18.78,1.39 -20.92,4.17 -2.15,2.95 -3.38,12.6 -3.68,28.95 0,1.74 -0.04,3.39 -0.12,4.95 -0.07,1.57 -0.11,3.3 -0.11,5.22l0 9.91 0.23 22.16c0,4.52 0.15,8.78 0.46,12.78 0.3,4 0.84,7.65 1.61,10.96l0 -0.52c0.76,1.91 1.99,3.6 3.68,5.08 1.68,1.48 4.13,2.48 7.35,3 3.37,0.52 6.51,0.78 9.43,0.78 1.84,0.18 3.71,0.26 5.63,0.26 1.92,0 3.79,0 5.63,0l8.05 0c5.36,0 9.69,-0.21 12.99,-0.65 3.29,-0.43 5.55,-1.35 6.78,-2.74 2.14,-2.08 3.22,-9.04 3.22,-20.86l0 -4.17 -43.45 0 0 -34.43z"/>
  <path id="_3" class="fil6" d="M802.34 1068.52c-1.99,-5.73 -3.83,-11.34 -5.51,-16.82 -1.69,-5.47 -3.37,-10.73 -5.06,-15.77 -0.76,-2.61 -1.42,-4.74 -1.95,-6.4 -0.54,-1.65 -1.04,-3.26 -1.5,-4.82 -0.46,-1.57 -1.03,-3.35 -1.72,-5.35 -0.69,-2 -1.57,-4.73 -2.65,-8.21 -1.53,4.87 -3.02,9.74 -4.48,14.6 -1.46,4.87 -3.03,9.65 -4.71,14.35 -0.92,2.78 -1.69,5.26 -2.3,7.43 -0.61,2.17 -1.26,4.3 -1.95,6.39 -0.69,2.09 -1.42,4.26 -2.19,6.52 -0.76,2.26 -1.61,4.95 -2.53,8.08l36.55 0zm10.35 33.39l-57.24 0c-1.69,5.04 -3.45,10.64 -5.29,16.82 -1.84,6.17 -3.52,11.52 -5.06,16.04l-34.71 0 56.32 -175 33.8 0 57.7 175 -34.48 0 -11.04 -32.86z"/>
  <path id="_4" class="fil6" d="M1146.72 959.77l-48.28 175 -36.32 0 -29.89 -115.54c-1.99,7.48 -3.87,14.74 -5.63,21.78 -1.76,7.04 -3.64,14.3 -5.63,21.78 -1.53,5.56 -3.1,11.47 -4.71,17.73 -1.61,6.26 -3.22,12.52 -4.83,18.78 -1.61,6.26 -3.22,12.43 -4.83,18.51 -1.61,6.09 -3.1,11.74 -4.48,16.96l-35.87 0 -47.35 -175 33.79 0 31.04 118.14c5.05,-19.47 10.23,-39.33 15.51,-59.59 5.29,-20.25 10.39,-39.77 15.29,-58.55l35.63 0 30.58 117.88c2.15,-7.82 4.29,-15.73 6.44,-23.73 2.14,-8 4.29,-15.91 6.43,-23.73 1.38,-5.39 2.91,-11.13 4.6,-17.22 1.69,-6.08 3.37,-12.17 5.06,-18.25 1.69,-6.09 3.33,-12.08 4.94,-18 1.61,-5.91 3.1,-11.56 4.48,-16.95l34.03 0z"/>
  <path id="_5" class="fil6" d="M1235.68 1068.52c-1.99,-5.73 -3.83,-11.34 -5.51,-16.82 -1.69,-5.47 -3.38,-10.73 -5.06,-15.77 -0.77,-2.61 -1.42,-4.74 -1.96,-6.4 -0.53,-1.65 -1.03,-3.26 -1.49,-4.82 -0.46,-1.57 -1.03,-3.35 -1.72,-5.35 -0.7,-2 -1.58,-4.73 -2.65,-8.21 -1.53,4.87 -3.03,9.74 -4.48,14.6 -1.46,4.87 -3.03,9.65 -4.71,14.35 -0.92,2.78 -1.69,5.26 -2.3,7.43 -0.62,2.17 -1.27,4.3 -1.96,6.39 -0.69,2.09 -1.42,4.26 -2.18,6.52 -0.77,2.26 -1.61,4.95 -2.53,8.08l36.55 0zm10.35 33.39l-57.24 0c-1.69,5.04 -3.45,10.64 -5.29,16.82 -1.84,6.17 -3.53,11.52 -5.06,16.04l-34.71 0 56.32 -175 33.8 0 57.7 175 -34.49 0 -11.03 -32.86z"/>
  <polygon id="_6" class="fil6" points="1332.24,959.77 1332.24,1099.56 1401.89,1099.56 1401.89,1134.77 1298.9,1134.77 1298.9,959.77 "/>
  <polygon id="_7" class="fil6" points="1443.73,959.77 1443.73,1099.56 1513.39,1099.56 1513.39,1134.77 1410.4,1134.77 1410.4,959.77 "/>
  <polygon id="_8" class="fil6" points="1547.87,994.72 1547.87,1028.1 1617.75,1028.1 1617.75,1062.26 1547.87,1062.26 1547.87,1100.6 1620.74,1100.6 1620.74,1134.77 1515.92,1134.77 1515.92,959.77 1620.74,959.77 1620.74,994.72 "/>
  <polygon id="_9" class="fil6" points="1700.97,995.5 1700.97,1134.77 1668.1,1134.77 1668.1,995.5 1623.5,995.5 1623.5,959.77 1744.88,959.77 1744.88,995.5 "/>
  <path class="fil5" d="M607.6 1294.16l19.16 0 33.86 133.54 -25.73 0 -6.74 -26.88 -49.48 0 -14.44 26.88 -28.41 0 71.78 -133.54zm4.79 43.96l-21.18 39.37 31.07 0 -9.89 -39.37z"/>
  <polygon id="_1_2" class="fil5" points="674.55,1294.16 699.96,1294.16 720.69,1388.32 768.89,1294.16 796.63,1294.16 728.3,1427.7 703.96,1427.7 "/>
  <path id="_2_3" class="fil5" d="M845.88 1294.16l19.16 0 33.86 133.54 -25.73 0 -6.74 -26.88 -49.48 0 -14.44 26.88 -28.41 0 71.78 -133.54zm4.79 43.96l-21.18 39.37 31.07 0 -9.89 -39.37z"/>
  <polygon id="_3_4" class="fil5" points="930.75,1294.16 958.31,1294.16 938.49,1427.7 910.92,1427.7 "/>
  <polygon id="_4_5" class="fil5" points="982.18,1294.16 1009.85,1294.16 993.74,1403.74 1037.77,1403.74 1034.4,1427.7 962.56,1427.7 "/>
  <path id="_5_6" class="fil5" d="M1120.94 1294.16l19.17 0 33.85 133.54 -25.73 0 -6.73 -26.88 -49.48 0 -14.45 26.88 -28.4 0 71.77 -133.54zm4.79 43.96l-21.18 39.37 31.08 0 -9.9 -39.37z"/>
  <path id="_6_7" class="fil5" d="M1210.6 1294.16l31.63 0c30.56,0 45.84,11.39 45.84,34.16 0,12.54 -6.32,22.89 -18.93,31.05 13.72,6.42 20.59,16.56 20.59,30.38 0,11.94 -5,21.25 -15,27.91 -10,6.71 -24.1,10.04 -42.25,10.04l-42.12 0 20.24 -133.54zm24.44 22.08l-4.82 31.88 10.31 0c6.53,0 11.91,-1.5 16.18,-4.48 4.24,-2.96 6.36,-6.71 6.36,-11.15 0,-4.97 -1.81,-8.89 -5.45,-11.84 -3.62,-2.95 -8.58,-4.41 -14.83,-4.41l-7.75 0zm-8.01 52.92l-5.53 36.46 13.65 0c8.16,0 14.72,-1.64 19.76,-4.93 5.03,-3.3 7.53,-7.57 7.53,-12.78 0,-5.25 -2.32,-9.69 -6.98,-13.3 -4.68,-3.65 -10.38,-5.45 -17.18,-5.45l-11.25 0z"/>
  <polygon id="_7_8" class="fil5" points="1324.5,1294.16 1352.17,1294.16 1336.06,1403.74 1380.09,1403.74 1376.72,1427.7 1304.88,1427.7 "/>
  <polygon id="_8_9" class="fil5" points="1417.15,1294.16 1489.4,1294.16 1485.86,1317.7 1441.35,1317.7 1436.87,1347.28 1479.2,1347.28 1475.45,1371.24 1433.26,1371.24 1428.33,1403.74 1471.49,1403.74 1467.95,1427.7 1396.9,1427.7 "/>
  <path class="fil6" d="M962.17 1576.86c15.26,0 27.03,4.35 35.29,13.05 8.25,8.69 12.39,20.8 12.39,36.32 0,16.05 -5.16,29.01 -15.49,38.94 -10.32,9.92 -23.75,14.87 -40.34,14.82 -14.69,-0.06 -26.28,-4.49 -34.74,-13.31 -8.47,-8.83 -12.71,-20.86 -12.71,-36.07 0,-15.44 5.18,-28.23 15.57,-38.44 10.37,-10.21 23.7,-15.31 40.03,-15.31zm27.06 49.69c0,-9.46 -2.66,-17.11 -7.97,-22.95 -5.32,-5.86 -12.29,-8.77 -20.94,-8.77 -8.91,0 -16.64,3.49 -23.18,10.49 -6.53,6.98 -9.79,15.31 -9.79,24.98 0,9.24 2.68,16.85 8.05,22.78 5.36,5.97 12.21,8.94 20.57,8.94 9.09,0 16.93,-3.49 23.46,-10.45 6.54,-6.98 9.8,-15.31 9.8,-25.02z"/>
  <polygon id="_1_10" class="fil6" points="1035.04,1578.42 1056.24,1578.42 1088.3,1645.45 1098.14,1578.42 1118.66,1578.42 1103.95,1678.58 1084.55,1678.58 1051.19,1609.18 1041.01,1678.58 1020.33,1678.58 "/>
  <path class="fil5" d="M477.7 1799.82l1.47 -10.2 23.01 0 -11.54 79.18 -22.97 0 1.18 -8.21c-7.86,6.49 -16.01,9.74 -24.38,9.74 -8.75,0 -16.01,-3.41 -21.79,-10.22 -5.79,-6.81 -8.69,-15.4 -8.69,-25.85 0,-12.91 3.64,-23.87 10.93,-32.88 7.25,-8.98 16.1,-13.48 26.45,-13.48 9.17,0 17.96,3.96 26.33,11.92zm-40.51 32.49c0,5.4 1.43,9.75 4.31,13 2.84,3.27 6.71,4.89 11.57,4.89 5.68,0 10.51,-2.26 14.47,-6.77 4,-4.54 5.98,-10.1 5.98,-16.77 0,-5.15 -1.66,-9.46 -4.99,-12.98 -3.32,-3.51 -7.41,-5.27 -12.27,-5.27 -5.49,0 -10.03,2.27 -13.64,6.77 -3.61,4.54 -5.43,10.23 -5.43,17.13z"/>
  <path id="_1_11" class="fil5" d="M567.53 1738.4l-2.81 22.08c-1.95,-0.77 -3.77,-1.15 -5.47,-1.15 -3.77,0 -6.23,1.73 -7.44,5.21 -1.18,3.48 -2.65,11.82 -4.44,25.08l12.68 0 -3.19 22.82 -12.97 0 -8.12 56.36 -23.07 0 8.21 -56.36 -6.1 0 3.58 -22.82 6.04 0 1.47 -11.28c1.44,-11.28 3.35,-19.39 5.78,-24.41 2.4,-5.02 5.88,-9.14 10.48,-12.37 4.6,-3.22 9.75,-4.85 15.43,-4.85 2.43,0 5.76,0.57 9.94,1.69z"/>
  <path id="_2_12" class="fil5" d="M622.88 1790.13l-5.53 21.35c-2.23,-1.02 -5.08,-1.54 -8.53,-1.54 -10.54,0 -16.84,7.03 -18.91,21.13l-5.66 37.73 -22.91 0 11.89 -79.18 22.91 0 -0.83 5.56c6.32,-4.98 12.59,-7.48 18.72,-7.48 2.94,0 5.91,0.8 8.85,2.43z"/>
  <path id="_3_13" class="fil5" d="M652.64 1772.18c-4.16,0 -7.64,-1.51 -10.51,-4.48 -2.88,-3 -4.32,-6.55 -4.32,-10.67 0,-3.96 1.44,-7.38 4.35,-10.16 2.91,-2.81 6.39,-4.22 10.48,-4.22 4.06,0 7.51,1.41 10.38,4.22 2.88,2.78 4.32,6.2 4.32,10.16 0,4.31 -1.41,7.89 -4.19,10.8 -2.78,2.91 -6.16,4.35 -10.16,4.35l-0.35 0zm-16.17 17.44l22.91 0 -11.69 79.18 -22.91 0 11.69 -79.18z"/>
  <path id="_4_14" class="fil5" d="M743.81 1795.21l-2.91 18.95 -0.92 -0.38c-3.87,-2.27 -7.23,-3.87 -10.01,-4.76 -2.81,-0.93 -6.26,-1.38 -10.28,-1.38 -6.33,0 -11.67,2.46 -16.08,7.35 -4.38,4.89 -6.58,10.87 -6.58,17.93 0,5.78 1.79,10.32 5.34,13.58 3.54,3.22 8.53,4.86 14.95,4.86 4.63,0 10.83,-1.48 18.63,-4.41l-2.91 20.38c-8.66,2.14 -15.62,3.2 -20.86,3.2 -10.96,0 -20.04,-3.65 -27.2,-10.96 -7.18,-7.32 -10.76,-16.56 -10.76,-27.74 0,-10.29 3.83,-20.19 11.5,-29.68 7.67,-9.49 18.53,-14.25 32.56,-14.25 8.66,0 17.19,2.42 25.53,7.31z"/>
  <path id="_5_15" class="fil5" d="M817.25 1799.82l1.47 -10.2 23 0 -11.53 79.18 -22.98 0 1.19 -8.21c-7.86,6.49 -16.01,9.74 -24.38,9.74 -8.76,0 -16.01,-3.41 -21.8,-10.22 -5.78,-6.81 -8.69,-15.4 -8.69,-25.85 0,-12.91 3.65,-23.87 10.93,-32.88 7.26,-8.98 16.11,-13.48 26.46,-13.48 9.17,0 17.96,3.96 26.33,11.92zm-40.52 32.49c0,5.4 1.44,9.75 4.32,13 2.84,3.27 6.71,4.89 11.56,4.89 5.69,0 10.52,-2.26 14.48,-6.77 3.99,-4.54 5.97,-10.1 5.97,-16.77 0,-5.15 -1.66,-9.46 -4.98,-12.98 -3.33,-3.51 -7.42,-5.27 -12.27,-5.27 -5.5,0 -10.04,2.27 -13.65,6.77 -3.61,4.54 -5.43,10.23 -5.43,17.13z"/>
  <path id="_6_16" class="fil5" d="M882.82 1789.62l-1.47 8.4c4.76,-3.57 8.63,-6.13 11.6,-7.73 2.98,-1.59 6.27,-2.39 9.91,-2.39 6.33,0 11.41,2.39 15.24,7.15 3.83,4.8 5.78,11.16 5.78,19.11 0,2.56 -0.16,4.67 -0.47,6.36l-7.32 48.28 -22.82 0 6.94 -45.76c0.25,-1.56 0.38,-3.73 0.38,-6.55 0,-7.19 -2.91,-10.76 -8.66,-10.76 -3.51,0 -6.58,1.69 -9.17,5.08 -2.59,3.41 -4.32,7.86 -5.11,13.32l-6.71 44.67 -23.11 0 11.89 -79.18 23.1 0z"/>
  <path id="_7_17" class="fil5" d="M992.81 1745.91l17.64 0 31.16 122.89 -23.68 0 -6.2 -24.73 -45.53 0 -13.29 24.73 -26.14 0 66.04 -122.89zm4.41 40.45l-19.49 36.24 28.6 0 -9.11 -36.24z"/>
  <path id="_8_18" class="fil5" d="M1082.13 1859.82l-6.64 44.45 -22.82 0 16.75 -114.65 23.19 0 -0.83 5.59c4.51,-2.65 8.28,-4.5 11.38,-5.62 3.1,-1.12 6.81,-1.69 11.09,-1.69 8.69,0 15.88,3.48 21.53,10.48 5.69,6.99 8.53,15.97 8.53,26.9 0,12.56 -3.73,23.23 -11.24,32.05 -7.51,8.79 -16.49,13.2 -26.94,13.2 -7.8,0 -15.82,-3.58 -24,-10.71zm19.69 -10.19c5.52,0 10.13,-2.17 13.8,-6.55 3.68,-4.38 5.5,-9.87 5.5,-16.49 0,-5.94 -1.57,-10.51 -4.7,-13.74 -3.16,-3.23 -7.57,-4.82 -13.29,-4.82 -4.73,0 -8.98,2.43 -12.72,7.25 -3.77,4.86 -5.66,10.35 -5.66,16.55 0,5.05 1.6,9.3 4.77,12.69 3.16,3.42 7.09,5.11 11.75,5.11l0.55 0z"/>
  <path id="_9_19" class="fil5" d="M1177.2 1859.82l-6.64 44.45 -22.82 0 16.75 -114.65 23.19 0 -0.83 5.59c4.51,-2.65 8.28,-4.5 11.38,-5.62 3.1,-1.12 6.8,-1.69 11.09,-1.69 8.69,0 15.88,3.48 21.53,10.48 5.69,6.99 8.53,15.97 8.53,26.9 0,12.56 -3.74,23.23 -11.25,32.05 -7.5,8.79 -16.48,13.2 -26.93,13.2 -7.8,0 -15.82,-3.58 -24,-10.71zm19.68 -10.19c5.53,0 10.14,-2.17 13.81,-6.55 3.68,-4.38 5.5,-9.87 5.5,-16.49 0,-5.94 -1.57,-10.51 -4.7,-13.74 -3.17,-3.23 -7.58,-4.82 -13.29,-4.82 -4.73,0 -8.98,2.43 -12.72,7.25 -3.77,4.86 -5.66,10.35 -5.66,16.55 0,5.05 1.6,9.3 4.76,12.69 3.17,3.42 7.1,5.11 11.76,5.11l0.54 0z"/>
  <path id="_10" class="fil5" d="M1248.98 1855.99c0,-4.51 1.31,-8.18 3.93,-11.06 2.62,-2.87 5.94,-4.31 9.93,-4.31 3.81,0 7.07,1.37 9.82,4.09 2.74,2.71 4.12,5.94 4.12,9.68 0,4.7 -1.31,8.57 -3.97,11.6 -2.65,3.04 -5.97,4.54 -9.97,4.54 -3.77,0 -6.99,-1.44 -9.74,-4.32 -2.75,-2.87 -4.12,-6.29 -4.12,-10.22z"/>
  <path id="_11" class="fil5" d="M1341.56 1799.4l-11.7 11.89c-4.41,-4.1 -8.31,-6.14 -11.7,-6.14 -1.66,0 -3.35,0.61 -4.98,1.85 -1.66,1.25 -2.49,2.82 -2.49,4.67 0,2.55 0.86,4.73 2.59,6.48 1.72,1.8 5.17,3.94 10.29,6.49 5.14,2.56 8.94,5.4 11.4,8.57 2.46,3.13 3.71,7.15 3.71,12.01 0,6.87 -2.81,12.85 -8.44,17.9 -5.62,5.07 -12.27,7.6 -19.97,7.6 -10.8,0 -19.36,-5.3 -25.66,-15.95l12.85 -9.93c3.74,5.62 7.83,8.43 12.27,8.43 2.36,0 4.41,-0.67 6.1,-2.01 1.69,-1.34 2.53,-3 2.53,-4.95 0,-2.05 -0.9,-3.9 -2.69,-5.53 -1.82,-1.63 -5.18,-3.74 -10.13,-6.33 -9.74,-5.17 -14.6,-12.33 -14.6,-21.44 0,-7.25 2.62,-13.26 7.86,-17.99 5.24,-4.76 11.82,-7.12 19.75,-7.12 8.47,0 16.14,3.83 23.01,11.5z"/>
  <polygon id="_12" class="fil5" points="1373.36,1761.25 1396.17,1761.25 1392.02,1789.62 1402.69,1789.62 1399.37,1812.44 1388.89,1812.44 1380.45,1868.8 1357.64,1868.8 1365.88,1812.44 1357.06,1812.44 1360.35,1789.62 1369.2,1789.62 "/>
  <path id="_13" class="fil5" d="M1495.23 1828.54c0,11.57 -4.34,21.41 -13,29.56 -8.69,8.15 -19.17,12.23 -31.47,12.23 -11.51,0 -21.29,-3.83 -29.34,-11.47 -8.05,-7.66 -12.08,-16.9 -12.08,-27.76 0,-11.57 4.32,-21.67 12.94,-30.26 8.6,-8.63 18.66,-12.94 30.14,-12.94 12.62,0 22.91,3.77 30.86,11.34 7.96,7.54 11.95,17.32 11.95,29.3zm-61.92 1.5c0,5.5 1.82,10.07 5.43,13.74 3.61,3.64 8.08,5.47 13.42,5.47 5.21,0 9.68,-2.02 13.45,-6.01 3.77,-4 5.66,-8.69 5.66,-14.12 0,-5.85 -1.79,-10.61 -5.34,-14.29 -3.55,-3.64 -8.15,-5.46 -13.77,-5.46 -5.24,0 -9.68,2.01 -13.36,6.04 -3.67,4.02 -5.49,8.91 -5.49,14.63z"/>
  <path id="_14" class="fil5" d="M1565.57 1790.13l-5.53 21.35c-2.23,-1.02 -5.08,-1.54 -8.53,-1.54 -10.54,0 -16.84,7.03 -18.92,21.13l-5.65 37.73 -22.91 0 11.89 -79.18 22.91 0 -0.84 5.56c6.33,-4.98 12.59,-7.48 18.73,-7.48 2.94,0 5.91,0.8 8.85,2.43z"/>
  <path id="_15" class="fil5" d="M1651.63 1834.68l-54.45 0c1.44,11.37 7.09,17.06 17.03,17.06 6.81,0 12.62,-3.2 17.48,-9.59l16.29 8.44c-10.6,13.16 -22.87,19.74 -36.77,19.74 -11.31,0 -20.55,-3.57 -27.77,-10.76 -7.19,-7.19 -10.8,-16.36 -10.8,-27.55 0,-12.11 4.09,-22.49 12.3,-31.15 8.21,-8.66 18.02,-12.97 29.43,-12.97 11.5,0 20.61,3.86 27.38,11.63 6.78,7.73 10.07,19.46 9.88,35.15zm-53.3 -15.92l32.4 0c-1.05,-8.69 -6.2,-13.03 -15.46,-13.03 -7.93,0 -13.55,4.34 -16.94,13.03z"/>
  <path class="fil6" d="M1925.65 898.2l-0.14 -0.02c8.31,0.45 7.54,-10.55 8.19,-15.8l1.34 -10.41 0.71 -5.22c0.97,-8.21 -10.79,-10.38 -12.8,-2.33 -0.95,5.27 -1.48,11 -2.17,16.33l-1.24 10.12c-0.38,3.24 1.67,6.38 4.87,7.13l0.59 0.12c-0.26,0 -0.53,-0.02 -0.8,0 -3.22,0.19 -5.78,2.56 -6.16,5.78l-0.92 8.32 -1.08 10.49 -0.7 7.17c-0.85,7.21 9.65,10.26 12.58,2.93 0.2,-0.6 0.3,-0.99 0.38,-1.63l0.69 -7.17 1.08 -10.41c0.59,-5.34 3.15,-13.86 -4.42,-15.4zm391.29 1331.26l-4.43 -4.52 -7.51 -7.86c-6.23,-6.23 -15.2,2.73 -9.49,8.91l7.66 8.02c19.54,19.91 31.13,12.75 13.77,-4.55zm-30.36 -13.09c5.69,6.17 15.35,-2 9.64,-8.75l-5.8 -6.42 -4.4 -4.96 -6.91 -7.98c-4.68,-5.54 -13.77,-0.27 -10.96,6.74 0.3,0.65 0.56,1.13 1.05,1.7l7.04 8.13 4.47 5.05 5.87 6.49zm-25.85 -29.69c5.3,6.26 15.31,-0.93 10.09,-8.23 -2.26,-2.68 -4.47,-5.42 -6.7,-8.14l-4.35 -5.39 -5.26 -6.63c-5.59,-6.61 -15.3,0.96 -10.28,7.99l5.37 6.78 4.42 5.47 6.71 8.15zm-24.54 -30.75c4.16,5.82 14.2,1.07 11.14,-6.58 -0.22,-0.48 -0.44,-0.83 -0.75,-1.27 -5.23,-6.88 -10.4,-13.78 -15.49,-20.77 -4.49,-6.28 -14.56,-0.67 -11.13,6.68 0.18,0.34 0.34,0.63 0.58,0.95l7.15 9.73 8.5 11.26zm-23.3 -31.63c4.87,6.81 15.43,-0.08 10.7,-7.43 -2.29,-3.21 -4.54,-6.44 -6.81,-9.68l-8.01 -11.69c-4.67,-6.54 -14.69,-0.89 -11.17,6.65l0.38 0.64c4.91,7.22 9.86,14.39 14.91,21.51zm-22.19 -32.4c4.26,6.62 14.79,1.05 11.32,-6.4l-0.44 -0.76 -5.81 -8.87 -8.26 -12.9c-4.6,-7.15 -15.48,-0.49 -11.03,6.92l8.36 13.07 5.86 8.94zm-21.14 -33.08c0.63,1.03 1.59,1.88 2.65,2.41 6.02,2.81 11.79,-3.67 8.45,-9.24l-5.52 -9 -7.91 -13.18c-4.18,-6.97 -15.04,-1.52 -11.41,6.26 4.17,7.56 9.17,15.37 13.74,22.75zm-20.15 -33.69c4.37,7.29 15.4,1.22 11.29,-6.5 -4.34,-7.48 -8.59,-15 -12.8,-22.55 -3.64,-6.83 -14.71,-2.35 -11.72,5.63l0.33 0.68c4.25,7.61 8.53,15.2 12.9,22.74zm-19.21 -34.22c3.63,6.8 14.33,2.59 11.91,-5.16 -0.14,-0.37 -0.26,-0.67 -0.45,-1.02 -4.13,-7.6 -8.2,-15.22 -12.2,-22.89 -3.67,-6.88 -14.43,-2.86 -11.88,5.28l0.32 0.72c4.04,7.72 8.14,15.41 12.3,23.07zm-18.32 -34.7c3.73,7 14.45,2.9 11.91,-5.22l-0.29 -0.65c-3.91,-7.71 -7.82,-15.42 -11.62,-23.19 -4.15,-7.77 -15.29,-1.95 -11.72,5.69 3.82,7.83 7.77,15.6 11.72,23.37zm-17.43 -35.11c3.39,7.25 14.97,2.9 11.88,-5.32 -1.64,-3.63 -3.47,-7.27 -5.18,-10.87l-6.03 -12.9c-2.97,-6.78 -13.76,-3.77 -12.3,4 0.13,0.54 0.24,0.91 0.47,1.45 3.67,7.9 7.38,15.79 11.16,23.64zm-16.61 -35.54c3.18,7.28 14.64,3.33 12.11,-4.75l-0.23 -0.58c-3.55,-7.88 -7.11,-15.77 -10.53,-23.71 -3.35,-7.64 -15.08,-3.13 -12.02,5.04 3.42,8.03 7.07,16.04 10.67,24zm-15.78 -35.88c3.3,7.55 14.65,3.34 12.18,-4.58 -3.07,-8.1 -6.9,-16.35 -10.2,-24.44 -2.55,-6.79 -13.47,-4.52 -12.48,3.36 0.1,0.59 0.2,0.97 0.41,1.55 3.31,8.06 6.66,16.1 10.09,24.11zm-15 -36.21c2.62,6.97 13.97,4.49 12.39,-3.9l-0.3 -0.95c-3.24,-8.01 -6.37,-16.08 -9.49,-24.15 -2.76,-7.36 -14.44,-4.29 -12.32,4.19 2.78,8.13 6.48,16.8 9.72,24.81zm-14.21 -36.56c2.78,7.42 14.35,4.41 12.35,-4.07 -2.72,-8.22 -6.2,-16.59 -9.14,-24.82 -2.94,-7.84 -14.77,-4.11 -12.31,4.25 1.11,3.14 2.28,6.27 3.42,9.4l5.68 15.24zm-13.44 -36.81c0.92,2.45 2.89,4 5.42,4.31 4.7,0.59 8.51,-4.23 6.87,-8.62 -2.88,-8.15 -5.73,-16.33 -8.48,-24.52 -2.17,-6.92 -13.14,-5.47 -12.66,2.67 0.07,0.55 0.14,0.93 0.3,1.45 2.79,8.26 5.65,16.49 8.55,24.71zm-12.69 -37.09c2.24,7.15 13.61,5.37 12.62,-3.1l-0.24 -0.96c-2.72,-8.21 -5.38,-16.45 -7.98,-24.7 -2.37,-7.56 -14.07,-5.12 -12.58,3.33 2.21,8.31 5.46,17.2 8.18,25.43zm-11.92 -37.33c2.27,7.26 13.2,5.46 12.71,-2.49 -0.06,-0.48 -0.13,-0.88 -0.27,-1.33 -2.55,-8.27 -5.03,-16.55 -7.48,-24.85 -2.44,-7.83 -14.08,-5.14 -12.62,3.16 2.13,8.38 5.09,17.2 7.66,25.51zm-11.18 -37.56c2.48,7.95 14.17,5.09 12.62,-3.18 -2.14,-8.43 -4.78,-16.96 -7.09,-25.4 -2.59,-8.28 -14.53,-4.96 -12.57,3.41 2.3,8.4 4.63,16.8 7.04,25.17zm-10.43 -37.78c1.68,7.16 13.28,6.25 12.77,-2.36 -1.54,-8.27 -4.56,-17.73 -6.67,-26.1 -1.75,-7.4 -13.3,-6.18 -12.8,2.17l0.16 0.98c2.13,8.45 4.29,16.89 6.54,25.31zm-9.68 -37.98c1.71,7.26 12.83,6.36 12.83,-1.74 -0.03,-0.5 -0.08,-0.88 -0.18,-1.35l-2.34 -9.66 -3.66 -15.58c-1.76,-7.49 -12.85,-6.3 -12.85,1.55 0.03,0.5 0.05,0.89 0.16,1.35l3.69 15.72 2.35 9.71zm-8.94 -38.16c1.87,7.92 13.79,6.11 12.79,-2.43 -1.64,-8.53 -3.77,-17.22 -5.57,-25.77 -1.97,-8.36 -14.26,-5.88 -12.75,2.66l3.34 15.6 2.19 9.94zm-8.17 -38.33c1.26,7.14 12.41,6.98 12.88,-1.07 0,-0.58 -0.03,-0.97 -0.12,-1.52 -1.73,-8.47 -3.38,-16.96 -5,-25.46 -1.2,-6.84 -11.48,-7.4 -12.86,0.41 -0.05,0.76 -0.07,1.24 0.06,1.99l2.94 15.21 2.1 10.44zm-7.43 -38.48c0.57,3.21 3.52,5.53 6.79,5.33 3.9,-0.23 6.7,-3.8 6.02,-7.67 -1.56,-8.5 -3.04,-17.02 -4.49,-25.55 -1.1,-6.23 -9.4,-7.53 -12.32,-1.67 -0.51,1.27 -0.77,2.37 -0.52,3.81l2.5 14.52 2.02 11.23zm-6.65 -38.63c1.42,8.08 13.44,6.84 12.9,-1.66 -0.54,-4.17 -1.33,-8.43 -1.99,-12.59l-2.04 -13.45c-1.51,-8.53 -13.9,-6.68 -12.89,1.87l2.06 13.58 1.96 12.25zm-5.9 -38.75c0.85,7.17 11.92,7.78 12.94,-0.33 0.03,-0.54 0.02,-0.95 -0.04,-1.48l-1.87 -13.44 -1.6 -12.27c-0.88,-7.45 -11.97,-7.68 -12.94,0.09 -0.03,0.55 -0.05,0.96 0.01,1.52l1.63 12.4 1.87 13.51zm-5.11 -38.87c0.88,7.5 11.96,7.75 12.94,-0.09 0.04,-0.52 0.05,-0.93 -0.01,-1.44l-1.76 -14.93 -1.2 -10.84c-0.95,-8.14 -12.98,-7.61 -12.98,0.87 0.26,3.77 0.83,7.67 1.24,11.44l1.77 14.99zm-4.33 -38.96c0.83,7.08 10.47,8.01 12.69,1.35 0.22,-0.89 0.39,-1.62 0.27,-2.61l-1.6 -16.61 -0.83 -9.25c-1.01,-8.6 -13.47,-7.46 -12.97,1.12l0.83 9.32 1.61 16.68zm-3.53 -39.05c0.46,7.74 12.46,8.29 13,-0.31l-0.02 -0.67 -0.65 -8.3 -1.24 -17.6c-0.47,-7.9 -12.5,-8.3 -13,0.26l0.01 0.58 0.5 7.49 1.4 18.55zm-2.72 -39.08c0.14,2.41 1.69,4.71 3.99,5.63 4.46,1.79 9.29,-1.54 9,-6.39l-0.57 -10.25 -0.77 -15.65c-0.48,-8.18 -12.51,-8.4 -13.01,0.13 0.06,5.32 0.5,10.89 0.78,16.22l0.58 10.31zm-1.9 -39.15c0.5,8.51 13.01,8.23 13.01,-0.44 -0.24,-4.12 -0.29,-8.32 -0.43,-12.44l-0.37 -13.53c0,-7.18 -10.78,-9.12 -12.86,-1.33 -0.1,0.57 -0.16,0.98 -0.16,1.59l0.37 13.67 0.44 12.48zm-1.07 -39.2c0,7.57 11.42,9.04 12.94,0.93 0.05,-0.39 0.08,-0.71 0.08,-1.12l-0.19 -14.7 -0.06 -11.23c0,-8.23 -12.5,-9 -13.02,-0.12l0.06 11.47 0.19 14.77zm-0.23 -39.22c0,7.7 10.97,9.09 12.85,1.55 0.09,-0.48 0.17,-0.9 0.17,-1.43l0.04 -6.79 0.13 -10.35 0.15 -8.83c0,-3.32 -2.18,-5.94 -5.42,-6.55 -3.85,-0.68 -7.6,2.39 -7.6,6.29l-0.16 8.9 -0.12 10.42 -0.04 6.79zm0.63 -39.21c0,8.68 12.51,8.98 13.02,0.42l0.27 -9.32 0.37 -10.38 0.26 -6.25c0.44,-7.47 -10.83,-9.83 -12.89,-1.56l-0.12 0.98 -0.27 6.33 -0.37 10.46 -0.27 9.32zm1.5 -39.15c-0.46,7.87 11.46,9.71 12.96,1.24 0.38,-4.1 0.46,-8.41 0.68,-12.53l0.85 -13.94c0.5,-8.41 -11.98,-9.56 -12.97,-1.1 -0.4,4.74 -0.6,9.55 -0.88,14.3l-0.64 12.03zm2.39 -39.15c-0.49,8.47 11.98,9.63 12.98,1.1l1.13 -14.84 0.95 -11.13c0.86,-7.32 -10.13,-10.26 -12.71,-2.51 -0.14,0.43 -0.2,0.84 -0.26,1.3l-0.96 11.29 -1.13 14.79zm12.62 -116.95c-1.01,8.55 11.38,10.39 12.88,1.88l1.94 -13.14 1.96 -12.48c0.58,-3.28 -1.56,-6.56 -4.78,-7.37 -3.76,-0.93 -7.39,1.44 -8.06,5.24l-1.99 12.65 -1.95 13.22zm6.07 -38.76c-1.38,7.82 10.17,10.9 12.67,2.91l0.16 -0.69 0.99 -5.89 1.84 -10.39 1.7 -9.28c1.41,-8 -10.18,-10.94 -12.66,-3l-0.14 0.61 -1.72 9.37 -1.85 10.47 -0.99 5.89zm7.01 -38.61c-1.47,8.34 10.64,11.09 12.76,2.61l1.81 -9.17 2.12 -10.36 1.26 -5.95c1.61,-6.84 -8.11,-11.44 -12.19,-4.28 -0.26,0.54 -0.41,0.96 -0.54,1.54l-1.28 6.04 -2.14 10.44 -1.8 9.13zm7.98 -38.38c-1.76,7.48 9.32,11.54 12.5,3.59l0.21 -0.76 2.79 -12.4 3.02 -12.84c1.86,-7.92 -9.58,-11.42 -12.44,-3.78l-0.21 0.68 -3.06 13.02 -2.81 12.49zm8.97 -38.21c-0.4,1.68 -0.19,3.46 0.7,4.9 2.87,5.01 10.61,3.86 11.93,-1.71l1.36 -5.51 2.64 -10.3 2.45 -9.33c1.96,-8.33 -9.99,-11.64 -12.57,-3.4l-2.49 9.46 -2.66 10.39 -1.36 5.5zm9.94 -37.97c-2.05,6.57 7.16,11.92 11.81,5.2 0.34,-0.59 0.52,-1.01 0.72,-1.65l2.52 -9.03 2.94 -10.26 1.67 -5.66c1.98,-6.35 -6.17,-11.57 -11.24,-6.04 -0.61,0.79 -0.94,1.36 -1.24,2.31l-1.7 5.76 -2.96 10.35 -2.52 9.02zm10.93 -37.65c-2.32,7.44 8.57,12.27 12.26,4.37 1.5,-4.25 2.74,-8.82 4.08,-13.14l3.88 -12.12c2.41,-7.7 -8.54,-12.36 -12.22,-4.48 -1.49,4.12 -2.74,8.5 -4.08,12.69l-3.92 12.68zm11.95 -37.39c-2.56,8.17 9.28,12.31 12.33,4.18l2.05 -6.12 3.49 -10.16 2.9 -8.25c2.69,-7.18 -7.91,-12.68 -12.01,-4.98l-0.26 0.61 -2.93 8.35 -3.52 10.24 -2.05 6.13zm12.94 -37.07c-2.56,6.81 6.57,12.34 11.42,6.04 0.33,-0.52 0.56,-0.9 0.78,-1.49l3.67 -9.95 5.45 -14.33c0.64,-1.71 0.58,-3.27 -0.09,-4.95 -2.29,-5.34 -10.03,-5.17 -12.04,0.21l-5.52 14.51 -3.67 9.96zm13.95 -36.65c-3.02,8.06 8.65,12.7 12.04,4.95l5.61 -13.96 4.19 -10.14c2.98,-6.83 -6.41,-12.69 -11.23,-6.43 -0.31,0.45 -0.53,0.81 -0.75,1.32l-4.27 10.33 -5.59 13.93zm14.96 -36.3c-3.21,7.33 7.45,13.13 11.74,5.62l3.61 -8.32 4.38 -9.96 2.65 -5.88c3.2,-7.31 -6.97,-13.1 -11.55,-5.98l-0.3 0.59 -2.69 5.98 -4.43 10.05 -3.41 7.9zm15.95 -35.82c-3.51,8.03 8.25,13.12 11.82,5.48l5.63 -12.06 5.45 -11.34c2.95,-5.53 -3.56,-12.08 -9.57,-8.22 -1.02,0.79 -1.5,1.33 -2.11,2.46l-5.53 11.52 -5.69 12.16zm16.99 -35.41c-1.39,2.61 -0.64,6.18 1.74,8.01 3.34,2.57 7.89,1.59 9.89,-2.15l3.27 -6.57 4.99 -9.8 3.5 -6.75c3.71,-6.96 -6.28,-13.51 -11.15,-6.69l-0.38 0.64 -3.56 6.85 -5.03 9.89 -3.27 6.57zm17.95 -34.88c-3.54,6.62 5.28,13.21 10.67,7.33 0.32,-0.42 0.56,-0.72 0.81,-1.19l5.94 -11.02 6.45 -11.7c3.7,-6.94 -5.32,-13.23 -10.54,-7.53 -0.29,0.38 -0.56,0.68 -0.79,1.11l-6.56 11.89 -5.98 11.11zm18.97 -34.39c-3.81,6.36 4.95,13.64 10.61,7.46 0.26,-0.31 0.47,-0.61 0.67,-0.95l3.44 -6.02 5.6 -9.62 4.02 -6.76c4.2,-7.01 -6,-13.98 -10.97,-7.01l-4.28 7.17 -5.65 9.71 -3.44 6.02zm19.91 -33.79c-1.3,2.17 -1.29,4.95 0.16,7.03 2.7,3.91 8.51,3.82 10.96,-0.25l6.64 -10.81 7.02 -11.16c4.07,-6.33 -4.19,-13.54 -9.98,-8.23 -0.37,0.41 -0.65,0.69 -0.96,1.17l-7.14 11.35 -6.7 10.9zm20.91 -33.25c-3.26,5.07 1.33,11.41 7.26,9.83 1.49,-0.5 2.72,-1.28 3.62,-2.68l4.14 -6.36 6.23 -9.41 3.95 -5.85c0.77,-1.07 1.21,-2.62 1.13,-3.95 -0.4,-6.26 -8.21,-8.54 -11.89,-3.38l-4.01 5.94 -6.3 9.51 -4.13 6.35zm21.82 -32.6c-4.6,6.43 4.76,14.48 10.5,7.69 2.79,-3.84 5.48,-7.87 8.21,-11.77l6.89 -9.66c1.36,-1.92 1.61,-4.19 0.75,-6.35 -1.87,-4.66 -8.35,-5.41 -11.27,-1.34l-7.01 9.84 -8.07 11.59zm22.77 -32c-2.57,3.6 -1.16,8.34 2.99,10 2.6,0.97 5.8,0.09 7.46,-2.23l5.61 -7.61 6.9 -9.19 3.03 -3.97c4.99,-6.99 -4.71,-14.57 -10.3,-7.98l-3.12 4.09 -6.96 9.28 -5.61 7.61zm23.65 -31.3c-4.23,5.01 1.6,13.06 8.11,9.8 0.96,-0.55 1.41,-0.9 2.14,-1.77l3.13 -4.03 7.19 -9.09 5.79 -7.2c4.79,-5.66 -2.75,-14.09 -9.12,-9.19 -0.38,0.33 -0.66,0.6 -0.99,0.99l-5.86 7.28 -7.25 9.17 -3.14 4.04zm24.52 -30.63c-4.34,5.13 1.27,13.08 7.99,9.94 0.86,-0.48 1.39,-0.87 2.05,-1.64l8.14 -9.79 8.51 -10.02c5.29,-6.26 -3.33,-14.6 -9.43,-8.97 -3.11,3.29 -6.1,7.14 -9.05,10.61l-8.21 9.87zm25.42 -29.95c-3.94,4.65 -0.26,11.52 5.78,10.76 1.42,-0.18 2.99,-0.98 3.97,-2.13l6.02 -6.87 7.87 -8.83 3.34 -3.68c5.43,-5.88 -2.79,-14.62 -9.04,-9.34l-0.56 0.55 -3.42 3.77 -7.94 8.9 -6.02 6.87zm26.2 -29.19c-5.66,6.13 3.25,15.15 9.53,8.87l3.95 -4.28 8.17 -8.7 5.64 -5.92c5.35,-5.35 -1.8,-14.57 -8.64,-9.69l-0.74 0.66 -5.72 6 -8.24 8.79 -3.95 4.27zm27 -28.46c-1.6,1.59 -2.21,3.97 -1.67,6.13 1.33,4.96 7.34,6.61 10.97,2.98l10.46 -10.63 7.81 -7.78c1.47,-1.47 2.13,-3.43 1.88,-5.49 -0.66,-5.28 -7.24,-7.56 -11.03,-3.77l-7.89 7.86 -10.53 10.7z"/>
 </g>
</svg>
