<?xml version="1.0" encoding="UTF-8"?>
<!DOCTYPE svg PUBLIC "-//W3C//DTD SVG 1.1//EN" "http://www.w3.org/Graphics/SVG/1.1/DTD/svg11.dtd">
<!-- Creator: CorelDRAW 2021 (64-Bit) -->
<svg xmlns="http://www.w3.org/2000/svg" xml:space="preserve" width="4000px" height="2252px" version="1.1" style="shape-rendering:geometricPrecision; text-rendering:geometricPrecision; image-rendering:optimizeQuality; fill-rule:evenodd; clip-rule:evenodd"
viewBox="0 0 4000 2251.99"
 xmlns:xlink="http://www.w3.org/1999/xlink"
 xmlns:xodm="http://www.corel.com/coreldraw/odm/2003">
 <defs>
  <style type="text/css">
   <![CDATA[
    .fil1 {fill:none}
    .fil5 {fill:#009933}
    .fil0 {fill:white}
    .fil6 {fill:black;fill-rule:nonzero}
    .fil2 {fill:#009933;fill-rule:nonzero}
    .fil7 {fill:white;fill-rule:nonzero}
    .fil4 {fill:url(#id12)}
    .fil3 {fill:url(#id13);fill-rule:nonzero}
   ]]>
  </style>
   <clipPath id="id0">
    <path d="M0 0l4000 0 0 2250 -4000 0 0 -2250z"/>
   </clipPath>
    <clipPath id="id1">
     <path d="M1684.03 0l2315.97 0 0 2250 -2315.97 0 0 -2250z"/>
    </clipPath>
    <clipPath id="id2">
     <path d="M0 0l4000 0 0 2250 -4000 0 0 -2250z"/>
    </clipPath>
    <clipPath id="id3">
     <path d="M0 0l3134.26 0 0 2250 -3134.26 0 0 -2250z"/>
    </clipPath>
    <clipPath id="id4">
     <path d="M3134.26 2250l0 -2250 -3134.26 0 0 2250 3134.26 0z"/>
    </clipPath>
    <clipPath id="id5">
     <path d="M0 0l3134.26 0 0 2250 -3134.26 0 0 -2250z"/>
    </clipPath>
    <clipPath id="id6">
     <path d="M0 0l4000 0 0 2250 -4000 0 0 -2250z"/>
    </clipPath>
   <clipPath id="id7">
    <path d="M2178.42 0l1821.58 0 0 2250 -1821.58 0c-667.1,-527.97 329.22,-1318.64 0,-2250z"/>
   </clipPath>
    <clipPath id="id8">
     <path d="M2178.42 0l1821.58 0 0 2250 -1821.58 0c-667.1,-527.97 329.22,-1318.64 0,-2250z"/>
    </clipPath>
    <clipPath id="id9">
     <path d="M2178.42 0l1821.58 0 0 2250 -1821.58 0c-667.1,-527.97 329.22,-1318.64 0,-2250z"/>
    </clipPath>
    <clipPath id="id10">
     <path d="M2211.03 1652.37l1656.15 0 -31.3 200.3 -1656.14 0 31.29 -200.3z"/>
    </clipPath>
   <clipPath id="id11">
    <rect x="2296.11" y="411.14" width="1427.72" height="1427.72"/>
   </clipPath>
  <linearGradient id="id12" gradientUnits="userSpaceOnUse" x1="2218.93" y1="210.41" x2="1963.63" y2="2770.46">
   <stop offset="0" style="stop-opacity:1; stop-color:#996633"/>
   <stop offset="0.658824" style="stop-opacity:1; stop-color:#CBB298"/>
   <stop offset="1" style="stop-opacity:1; stop-color:#FEFEFE"/>
  </linearGradient>
  <linearGradient id="id13" gradientUnits="objectBoundingBox" x1="24.3036%" y1="56.9121%" x2="121.035%" y2="67.2901%">
   <stop offset="0" style="stop-opacity:1; stop-color:#996633"/>
   <stop offset="1" style="stop-opacity:1; stop-color:#663300"/>
  </linearGradient>
 </defs>
 <g id="Layer_x0020_1">
  <metadata id="CorelCorpID_0Corel-Layer"/>
  <polygon class="fil0" points="0,0 4000,0 4000,2250 0,2250 "/>
  <g style="clip-path:url(#id0)">
   <g id="_1887187404096">
   </g>
   <g style="clip-path:url(#id1)">
    <image x="1684.03" y="-351.78" width="2921.4" height="2921.4" xlink:href="Cover page1_Images\Cover page1_ImgID1.png"/>
   </g>
   <g style="clip-path:url(#id2)">
   </g>
   <g style="clip-path:url(#id3)">
   </g>
   <g style="clip-path:url(#id4)">
    <image x="-31.61" y="-31.17" width="3165.87" height="2532.7" xlink:href="Cover page1_Images\Cover page1_ImgID2.png"/>
   </g>
   <g style="clip-path:url(#id5)">
   </g>
   <g style="clip-path:url(#id6)">
   </g>
  </g>
  <polygon class="fil1" points="0,0 4000,0 4000,2250 0,2250 "/>
  <path class="fil2" d="M422.45 680.73l149.03 0c-1.52,11.58 -2.97,21.33 -4.34,29.26 -1.37,7.92 -3.13,14.93 -5.26,21.03 -0.61,3.35 -1.45,6.63 -2.51,9.83 -1.07,3.2 -1.91,6.47 -2.52,9.83 -3.05,10.97 -6.7,21.71 -10.97,32.23 -4.27,10.51 -8.99,20.19 -14.17,29.02 -13.11,21.64 -35.66,34.29 -67.66,37.95 -8.84,0.91 -18.21,1.52 -28.12,1.83 -9.9,0.3 -19.88,0.46 -29.94,0.46 -47.85,0 -79.85,-8.08 -96,-24.23 -5.19,-5.19 -9.15,-11.59 -11.89,-19.2 -2.74,-7.63 -4.12,-16.77 -4.12,-27.43 0,-13.72 2.75,-31.09 8.23,-52.12 0.61,-3.35 1.38,-6.55 2.29,-9.6 0.91,-3.05 1.83,-6.25 2.74,-9.6l2.75 -10.06c0.3,-1.52 0.53,-2.97 0.68,-4.34 0.15,-1.37 0.54,-2.82 1.14,-4.34 2.14,-6.1 3.81,-13.26 5.03,-21.49 0.31,-0.61 0.61,-1.37 0.92,-2.29 0.3,-0.91 0.45,-1.98 0.45,-3.2 0.61,-1.52 1.15,-3.2 1.61,-5.03 0.45,-1.83 0.98,-3.65 1.59,-5.48 10.37,-39.32 25,-67.66 43.89,-85.03 20.42,-18.29 51.05,-27.43 91.89,-27.43 5.79,0 11.43,0 16.92,0 5.48,0 11.12,0.15 16.91,0.45l7.32 0 8.22 0 16 0c23.78,0.61 41,6.18 51.66,16.69 10.67,10.51 16,24.91 16,43.2 0,9.76 -1.82,20.73 -5.48,32.92 -0.31,0.91 -0.61,2.13 -0.92,3.65 -0.3,1.53 -0.76,2.9 -1.37,4.12 -0.3,1.83 -0.84,4.49 -1.6,8 -0.76,3.5 -1.29,5.71 -1.6,6.63l-64 0c6.4,-27.43 8.99,-44.65 7.77,-51.66 -0.91,-0.92 -5.79,-1.53 -14.63,-1.83 -9.14,-0.61 -18.21,-0.99 -27.2,-1.14 -8.99,-0.15 -18.21,-0.23 -27.66,-0.23 -25.29,0 -41.14,3.05 -47.54,9.14 -3.35,2.74 -6.86,8.92 -10.52,18.52 -3.65,9.6 -7.31,21.1 -10.97,34.51 -0.61,1.83 -1.06,3.51 -1.37,5.03 -0.3,1.52 -0.61,3.2 -0.91,5.03 -1.22,4.27 -2.44,8.53 -3.66,12.8 -1.22,4.27 -2.29,8.38 -3.2,12.34 -0.61,3.36 -1.3,6.63 -2.06,9.83 -0.76,3.2 -1.6,6.48 -2.51,9.83 -0.92,3.36 -1.75,6.71 -2.52,10.06 -0.76,3.35 -1.44,6.4 -2.05,9.14 -1.53,7.01 -2.82,14.02 -3.89,21.03 -1.07,7.01 -1.6,14.02 -1.6,21.03 0,4.27 4.73,7.16 14.17,8.69 7.32,0.91 13.56,1.37 18.75,1.37 3.35,0.3 6.93,0.46 10.74,0.46 3.81,0 7.54,0 11.2,0l15.54 0c23.17,0 37.79,-2.29 43.89,-6.86 6.7,-5.79 12.8,-19.05 18.29,-39.77l-0.46 0.45c0,-1.22 0.3,-2.44 0.91,-3.65l-86.4 0 15.09 -60.35z"/>
  <path id="_1" class="fil2" d="M668.86 680.73l67.66 0c17.37,0 30.02,-2.44 37.94,-7.31 3.35,-2.14 6.63,-5.95 9.83,-11.43 3.2,-5.49 5.87,-12.04 8,-19.66 4.27,-15.55 5.33,-27.58 3.2,-36.12 -0.61,-1.52 -7.62,-2.28 -21.03,-2.28l-86.86 0 -18.74 76.8zm-105.61 169.15l75.89 -306.75 142.18 0c28.04,0 48.68,4.72 61.94,14.17 13.26,9.44 19.89,25.75 19.89,48.91 0,5.49 -0.31,11.36 -0.92,17.6 -0.6,6.25 -1.98,12.88 -4.11,19.89l0 -0.46c-2.44,9.75 -5.26,18.97 -8.46,27.66 -3.2,8.69 -6.93,16.38 -11.2,23.09l0.46 0c-1.83,3.96 -4.5,7.62 -8,10.97 -3.51,3.35 -7.39,6.4 -11.66,9.14 5.18,7.93 7.77,17.83 7.77,29.72 0,6.09 -1.22,14.02 -3.65,23.77l-21.03 82.29 -64.92 0 20.11 -83.2c1.53,-6.1 2.29,-11.13 2.29,-15.09 0,-4.27 -2.06,-7.24 -6.17,-8.92 -4.12,-1.67 -10.59,-2.51 -19.43,-2.51l-79.54 0c-2.44,9.45 -4.96,19.2 -7.55,29.26 -2.59,10.06 -5.26,19.96 -8,29.71 -1.83,7.62 -4.04,16.23 -6.63,25.83 -2.59,9.6 -4.65,17.91 -6.17,24.92l-63.09 0z"/>
  <path id="_2" class="fil2" d="M960.07 604.38c-1.53,6.1 -3.05,11.97 -4.58,17.61 -1.52,5.63 -3.04,11.2 -4.57,16.68 -0.61,2.74 -1.14,4.95 -1.6,6.63 -0.45,1.68 -0.91,3.28 -1.37,4.8 -0.45,1.52 -0.91,3.28 -1.37,5.26 -0.46,1.98 -1.14,4.49 -2.06,7.54l139.44 0 -14.63 59.89 -138.52 0c-1.83,7.01 -3.58,13.71 -5.26,20.11 -1.67,6.4 -3.43,12.65 -5.25,18.75 -0.61,3.04 -1.23,5.56 -1.84,7.54 -0.6,1.98 -1.14,3.96 -1.59,5.94 -0.46,1.98 -0.99,4.04 -1.6,6.18 -0.61,2.13 -1.38,5.02 -2.29,8.68l145.38 0 -15.09 59.89 -208.46 0 76.34 -306.75 208.92 0 -15.08 61.25 -144.92 0z"/>
  <path id="_3" class="fil2" d="M1187.73 604.38c-1.52,6.1 -3.04,11.97 -4.57,17.61 -1.52,5.63 -3.05,11.2 -4.57,16.68 -0.61,2.74 -1.14,4.95 -1.6,6.63 -0.46,1.68 -0.91,3.28 -1.37,4.8 -0.46,1.52 -0.92,3.28 -1.38,5.26 -0.45,1.98 -1.14,4.49 -2.05,7.54l139.43 0 -14.63 59.89 -138.52 0c-1.82,7.01 -3.58,13.71 -5.25,20.11 -1.68,6.4 -3.43,12.65 -5.26,18.75 -0.61,3.04 -1.22,5.56 -1.83,7.54 -0.61,1.98 -1.14,3.96 -1.6,5.94 -0.46,1.98 -0.99,4.04 -1.6,6.18 -0.61,2.13 -1.37,5.02 -2.29,8.68l145.38 0 -15.08 59.89 -208.47 0 76.35 -306.75 208.92 0 -15.09 61.25 -144.92 0z"/>
  <path id="_4" class="fil2" d="M1649.01 543.13l-77.27 306.75 -74.51 0 -76.35 -206.18c-8.53,33.83 -17.29,68.57 -26.28,104.23 -8.99,35.66 -17.6,69.64 -25.83,101.95l-63.55 0 76.81 -306.75 74.51 0 76.35 208.46c8.83,-34.13 17.75,-69.11 26.74,-104.92 8.99,-35.81 17.45,-70.32 25.37,-103.54l64.01 0z"/>
  <polygon class="fil3" points="433.65,893.35 433.65,923.34 345.54,1035.12 436.02,1035.12 436.02,1069.84 293.98,1069.84 293.98,1041.17 382.1,929.39 296.88,929.39 296.88,893.35 "/>
  <path id="_1_0" class="fil3" d="M560.43 893.35l37.08 0 0 119.68c0,9.47 -1.01,17.62 -3.02,24.46 -2.02,6.84 -4.87,12.63 -8.55,17.36 -8.24,9.47 -22.36,14.64 -42.35,15.52 -2.8,0.17 -5.83,0.3 -9.07,0.39 -3.25,0.09 -6.27,0.14 -9.07,0.14 -10.35,0 -19.65,-0.71 -27.89,-2.11 -8.24,-1.4 -15.34,-3.33 -21.3,-5.79l0.26 0.27c-15.08,-5.96 -22.62,-22.71 -22.62,-50.24l0 -119.68 37.35 0 0 119.68c0,10.52 1.32,16.92 3.95,19.2l-0.53 -0.26c3.33,2.63 10.26,3.94 20.78,3.94l17.1 0c6.13,0 11.13,-0.22 14.99,-0.65 3.86,-0.44 6.75,-1.36 8.68,-2.77 2.8,-2.28 4.21,-8.76 4.21,-19.46l0 -119.68z"/>
  <path id="_2_1" class="fil3" d="M682.99 972.52l85.49 0c0.87,6.67 1.36,11.62 1.44,14.86 0.09,3.25 0.13,6.1 0.13,8.55l0 14.47c0,13.68 -1.92,25.78 -5.78,36.3 -2.46,6.66 -6.53,11.88 -12.23,15.65 -5.7,3.77 -13.46,6.26 -23.28,7.49 -5.26,0.53 -10.7,0.88 -16.31,1.06 -5.61,0.17 -11.22,0.26 -16.83,0.26 -28.06,0 -47.34,-4.47 -57.87,-13.42 -11.39,-9.29 -17.09,-27.61 -17.09,-54.97 0,-3.68 0,-7.36 0,-11.05 0,-3.68 0.09,-7.45 0.26,-11.3l0 -20.78c0,-22.8 4.65,-39.63 13.94,-50.5 4.91,-5.61 11.62,-9.82 20.12,-12.63 8.51,-2.8 18.55,-4.21 30.12,-4.21 3.33,0 6.57,0 9.73,0 3.16,0 6.4,0.09 9.73,0.27l4.21 0 4.73 0 9.47 0c17.19,0.52 29.24,5.12 36.17,13.81 6.93,8.67 10.39,20.99 10.39,36.95l0 15.52 -36.83 0c0,-14.73 -0.96,-23.94 -2.89,-27.62 -0.88,-1.75 -4.56,-2.8 -11.05,-3.16 -5.43,-0.35 -10.74,-0.57 -15.91,-0.65 -5.17,-0.09 -10.56,-0.13 -16.17,-0.13 -13.51,0 -21.48,1.4 -23.94,4.2 -2.45,2.98 -3.86,12.72 -4.21,29.2 0,1.75 -0.04,3.42 -0.13,5 -0.09,1.57 -0.13,3.33 -0.13,5.26l0 9.99 0.26 22.36c0,4.56 0.18,8.85 0.53,12.89 0.35,4.03 0.96,7.71 1.84,11.04l0 -0.52c0.88,1.93 2.28,3.63 4.21,5.13 1.93,1.49 4.73,2.5 8.42,3.02 3.85,0.53 7.45,0.79 10.78,0.79 2.1,0.17 4.25,0.26 6.44,0.26 2.2,0 4.34,0 6.45,0l9.2 0c6.14,0 11.09,-0.22 14.86,-0.65 3.77,-0.44 6.36,-1.36 7.76,-2.77 2.46,-2.1 3.68,-9.11 3.68,-21.04l0 -4.21 -49.71 0 0 -34.72z"/>
  <path id="_3_2" class="fil3" d="M875.26 1003.03c-2.28,-5.78 -4.38,-11.44 -6.31,-16.96 -1.93,-5.52 -3.86,-10.83 -5.79,-15.91 -0.87,-2.63 -1.62,-4.78 -2.23,-6.45 -0.62,-1.66 -1.19,-3.28 -1.71,-4.86 -0.53,-1.58 -1.19,-3.38 -1.97,-5.4 -0.79,-2.01 -1.8,-4.77 -3.03,-8.28 -1.75,4.91 -3.46,9.82 -5.13,14.73 -1.66,4.91 -3.46,9.73 -5.39,14.47 -1.05,2.8 -1.93,5.3 -2.63,7.49 -0.7,2.19 -1.45,4.34 -2.24,6.44 -0.79,2.11 -1.62,4.3 -2.49,6.58 -0.88,2.28 -1.85,5 -2.9,8.15l41.82 0zm11.84 33.67l-65.49 0c-1.93,5.09 -3.95,10.74 -6.05,16.97 -2.11,6.22 -4.04,11.61 -5.79,16.17l-39.72 0 64.44 -176.49 38.67 0 66.02 176.49 -39.46 0 -12.62 -33.14z"/>
  <path id="_4_3" class="fil3" d="M1086.47 997.25l0 13.15c0,0.35 0.04,0.66 0.13,0.92 0.09,0.26 0.13,0.57 0.13,0.92l0 9.21c0,13.67 -3.64,24.77 -10.91,33.27 -7.28,8.5 -18.02,13.55 -32.23,15.12 -4.03,0.35 -8.37,0.57 -13.01,0.66 -4.65,0.09 -9.17,0.13 -13.55,0.13l-22.36 0.27c-25.77,-2.11 -41.29,-12.37 -46.55,-30.78 -4.04,-15.6 -6.05,-31.83 -6.05,-48.66l0 -34.45c0,-8.25 0.74,-15.78 2.24,-22.62 1.48,-6.84 3.81,-12.98 6.96,-18.42l-0.26 0c6.66,-12.27 19.73,-19.46 39.19,-21.56l-0.26 0c2.28,-0.35 4.91,-0.66 7.89,-0.92 2.98,-0.27 5.87,-0.49 8.68,-0.66 2.28,-0.18 4.87,-0.26 7.76,-0.26 2.89,0 5.48,0 7.76,0 11.57,0 21.43,1.05 29.59,3.15 8.15,2.11 14.24,4.91 18.28,8.42 4.21,4.03 7.62,10.91 10.26,20.65 2.63,9.73 4.38,22.13 5.26,37.21l-37.35 0c0,-7.89 -0.26,-14.51 -0.79,-19.85 -0.53,-5.35 -1.32,-9.08 -2.37,-11.18 -1.93,-1.93 -7.01,-2.9 -15.25,-2.9 -5.44,0 -10.83,0.09 -16.18,0.27 -5.35,0.17 -10.83,0.43 -16.44,0.79 -7.36,0.52 -12.1,2.28 -14.2,5.26 -1.23,2.45 -2.06,5.52 -2.5,9.2 -0.44,3.68 -0.66,7.81 -0.66,12.36l0 2.64 0.26 25.51 0 8.15c0,2.28 0,4.6 0,6.97 0,2.37 0.09,4.87 0.27,7.5l0 1.31c0.35,4.56 0.83,8.86 1.44,12.89 0.62,4.03 1.63,7.28 3.03,9.73 0.88,1.58 2.63,2.68 5.26,3.29 2.63,0.61 5.43,1.1 8.42,1.45 1.4,0.17 2.98,0.3 4.73,0.39 1.75,0.09 3.24,0.13 4.47,0.13 4.74,0 9.47,-0.04 14.2,-0.13 4.74,-0.09 9.56,-0.31 14.47,-0.66 4.03,-0.35 7.23,-1.22 9.6,-2.63 2.37,-1.4 3.73,-4.03 4.08,-7.89l0 -7.89c-0.18,-1.93 -0.26,-4.86 -0.26,-8.81 0,-3.94 0,-7.49 0,-10.65l36.82 0z"/>
  <path id="_5" class="fil3" d="M1134.6 983.83l0.26 24.99c0.35,12.8 1.93,20.78 4.74,23.94 3.15,2.8 10.87,4.21 23.14,4.21 8.24,0 15.13,-0.36 20.65,-1.06 5.52,-0.7 9.78,-1.84 12.76,-3.42 3.85,-1.75 6.05,-10.25 6.57,-25.51l0 -19.2c0,-1.23 0.05,-2.37 0.13,-3.42 0.09,-1.05 0.14,-2.19 0.14,-3.42l0 -25.78c0,-15.07 -1.67,-23.49 -5,-25.25 -5.61,-2.62 -16.05,-3.94 -31.3,-3.94l-5.52 0c-11.4,0 -18.77,1.32 -22.1,3.94 -2.28,2.11 -3.59,10.35 -3.94,24.73l-0.53 29.19zm-37.35 -8.41c0,-22.45 2.37,-41.03 7.1,-55.76 5.79,-18.41 23.67,-27.62 53.66,-27.62l8.15 0c22.8,0 40.16,2.98 52.08,8.94 14.38,7.19 21.57,24.99 21.57,53.4l0 11.31c0,7.36 0,14.86 0,22.48 0,7.63 -0.09,15.13 -0.26,22.49 -0.35,10.52 -1.76,19.77 -4.21,27.75 -2.46,7.98 -5.96,14.34 -10.52,19.07 -8.95,9.47 -24.9,14.2 -47.87,14.2l-7.89 0c-1.4,-0.17 -2.55,-0.26 -3.42,-0.26 -0.88,0 -1.76,0 -2.63,0 -9.65,0 -18.24,-0.88 -25.78,-2.63 -7.54,-1.75 -14.03,-4.12 -19.46,-7.1 -12.28,-7.54 -19.03,-22.88 -20.26,-46.03 -0.17,-5.08 -0.26,-10.3 -0.26,-15.65 0,-5.35 0,-10.56 0,-15.65l0 -8.94z"/>
  <polygon id="_6" class="fil3" points="1292.15,893.35 1292.15,1069.84 1254.8,1069.84 1254.8,893.35 "/>
  <polygon id="_7" class="fil3" points="1468.64,893.35 1468.64,1069.84 1424.98,1069.84 1351.59,952.53 1351.59,1069.84 1315.03,1069.84 1315.03,893.35 1358.7,893.35 1432.08,1012.24 1432.08,893.35 "/>
  <path id="_8" class="fil3" d="M1657.23 1003.03c-2.28,-5.78 -4.39,-11.44 -6.32,-16.96 -1.93,-5.52 -3.86,-10.83 -5.78,-15.91 -0.88,-2.63 -1.63,-4.78 -2.24,-6.45 -0.61,-1.66 -1.18,-3.28 -1.71,-4.86 -0.53,-1.58 -1.18,-3.38 -1.97,-5.4 -0.79,-2.01 -1.8,-4.77 -3.03,-8.28 -1.75,4.91 -3.46,9.82 -5.12,14.73 -1.67,4.91 -3.47,9.73 -5.4,14.47 -1.05,2.8 -1.92,5.3 -2.63,7.49 -0.7,2.19 -1.44,4.34 -2.23,6.44 -0.79,2.11 -1.62,4.3 -2.5,6.58 -0.88,2.28 -1.84,5 -2.89,8.15l41.82 0zm11.83 33.67l-65.49 0c-1.93,5.09 -3.95,10.74 -6.05,16.97 -2.1,6.22 -4.03,11.61 -5.79,16.17l-39.71 0 64.44 -176.49 38.66 0 66.02 176.49 -39.45 0 -12.63 -33.14z"/>
  <path id="_9" class="fil3" d="M1766.9 973.84l32.36 0c12.27,0 20.86,-1.23 25.77,-3.68 1.58,-0.7 2.68,-2.63 3.29,-5.79 0.61,-3.15 0.92,-7.36 0.92,-12.63 0,-4.55 -0.17,-8.59 -0.52,-12.09 -0.36,-3.51 -1.14,-6.32 -2.37,-8.42 -1.58,-1.93 -6.05,-2.89 -13.42,-2.89l-46.03 0 0 45.5zm-36.29 96l0 -176.49 82.85 0c1.4,0 2.94,0 4.6,0 1.67,0 3.47,0.09 5.39,0.27 5.09,0.35 9.96,1.22 14.6,2.63 4.65,1.4 8.99,3.86 13.02,7.36 5.61,5.26 9.52,11.18 11.71,17.76 2.19,6.57 3.55,13.46 4.07,20.64l0 10.26c0,1.93 0,4.03 0,6.32 0,2.27 -0.08,4.38 -0.26,6.31 -0.52,5.26 -1.75,10.47 -3.68,15.65 -1.93,5.17 -4.91,9.77 -8.94,13.81 -3.16,3.33 -6.49,5.87 -10,7.62 -3.5,1.76 -7.1,3.07 -10.78,3.95 -3.68,0.88 -7.5,1.44 -11.45,1.71 -3.94,0.26 -7.84,0.39 -11.7,0.39 -0.35,0 -0.7,0.05 -1.05,0.13 -0.35,0.09 -0.7,0.13 -1.05,0.13l-41.04 0 0 61.55 -36.29 0z"/>
  <path id="_10" class="fil3" d="M1921.56 973.84l32.35 0c12.28,0 20.87,-1.23 25.78,-3.68 1.58,-0.7 2.67,-2.63 3.29,-5.79 0.61,-3.15 0.92,-7.36 0.92,-12.63 0,-4.55 -0.18,-8.59 -0.53,-12.09 -0.35,-3.51 -1.14,-6.32 -2.37,-8.42 -1.57,-1.93 -6.05,-2.89 -13.41,-2.89l-46.03 0 0 45.5zm-36.3 96l0 -176.49 82.86 0c1.4,0 2.93,0 4.6,0 1.66,0 3.46,0.09 5.39,0.27 5.09,0.35 9.95,1.22 14.6,2.63 4.64,1.4 8.99,3.86 13.02,7.36 5.61,5.26 9.51,11.18 11.7,17.76 2.19,6.57 3.55,13.46 4.08,20.64l0 10.26c0,1.93 0,4.03 0,6.32 0,2.27 -0.09,4.38 -0.26,6.31 -0.53,5.26 -1.76,10.47 -3.69,15.65 -1.93,5.17 -4.9,9.77 -8.94,13.81 -3.15,3.33 -6.49,5.87 -9.99,7.62 -3.51,1.76 -7.1,3.07 -10.79,3.95 -3.68,0.88 -7.49,1.44 -11.44,1.71 -3.94,0.26 -7.85,0.39 -11.7,0.39 -0.35,0 -0.7,0.05 -1.06,0.13 -0.35,0.09 -0.7,0.13 -1.05,0.13l-41.03 0 0 61.55 -36.3 0z"/>
  <path class="fil4" d="M2132.13 0l1867.87 0 0 2250 -1867.87 0c-684.06,-527.97 337.58,-1318.64 0,-2250z"/>
  <path class="fil5" d="M2178.42 0l1821.58 0 0 2250 -1821.58 0c-667.1,-527.97 329.22,-1318.64 0,-2250z"/>
  <g style="clip-path:url(#id7)">
   <g id="_1887187408080">
   </g>
   <g style="clip-path:url(#id8)">
    <image x="1809.6" y="-137.74" width="2541.79" height="2660.45" xlink:href="Cover page1_Images\Cover page1_ImgID3.png"/>
   </g>
   <g style="clip-path:url(#id9)">
   </g>
  </g>
  <path class="fil1" d="M2178.42 0l1821.58 0 0 2250 -1821.58 0c-667.1,-527.97 329.22,-1318.64 0,-2250z"/>
  <g id="_1887187408320">
   <g style="clip-path:url(#id10)">
    <image x="2179.74" y="1652.37" width="1687.44" height="200.3" xlink:href="Cover page1_Images\Cover page1_ImgID4.png"/>
   </g>
  </g>
  <g style="clip-path:url(#id11)">
   <image x="2296.11" y="411.14" width="1427.71" height="1427.72" xlink:href="Cover page1_Images\Cover page1_ImgID5.png"/>
  </g>
  <g id="_1887187413216">
   <g>
    <path class="fil6" d="M381.57 1448.89c7.14,-5.1 13.95,-7.57 20.43,-7.43 6.48,0.15 11.76,2.26 15.84,6.34 4.08,4.08 6.45,9.76 7.11,17.04 0.65,7.29 -1.28,15.59 -5.79,24.91 -4.52,8.89 -10.64,15.85 -18.36,20.87 -7.72,5.03 -15.95,8.63 -24.69,10.82 -8.74,2.18 -17.45,3.17 -26.11,2.95 -8.67,-0.22 -16.14,-1.06 -22.4,-2.51 -9.91,-2.48 -17.41,-7.07 -22.51,-13.77 -5.09,-6.7 -8.37,-14.93 -9.83,-24.69 -1.17,-9.18 -1.27,-19.27 -0.33,-30.27 0.95,-10.99 3.1,-21.81 6.45,-32.44 3.35,-10.64 7.94,-20.58 13.77,-29.83 5.82,-9.25 13.03,-16.72 21.63,-22.4 4.66,-3.93 10.34,-6.84 17.04,-8.74 6.7,-1.89 13.62,-3.02 20.76,-3.38 7.14,-0.37 13.99,-0.11 20.54,0.76 6.56,0.87 11.94,2.18 16.17,3.93 5.39,2.19 9.65,5.43 12.78,9.73 3.13,4.29 5.28,8.99 6.45,14.09 1.16,5.1 1.38,10.23 0.65,15.41 -0.72,5.17 -2.29,9.68 -4.69,13.54 -2.41,3.86 -5.65,6.67 -9.73,8.41 -4.08,1.75 -8.81,1.75 -14.2,0 -2.91,-1.01 -5.03,-2.47 -6.34,-4.37 -1.31,-1.89 -2.33,-4.29 -3.06,-7.21 -0.43,-1.74 -0.8,-3.53 -1.09,-5.35 -0.29,-1.82 -0.73,-3.6 -1.31,-5.35 -1.75,-5.39 -4.22,-8.85 -7.43,-10.38 -3.2,-1.53 -6.59,-1.6 -10.16,-0.22 -3.57,1.38 -6.99,3.9 -10.27,7.54 -3.28,3.64 -5.86,7.79 -7.76,12.45 -2.62,6.7 -4.88,13.33 -6.77,19.89 -1.9,6.55 -3.35,12.78 -4.37,18.68 -1.02,5.9 -1.64,11.36 -1.86,16.39 -0.22,5.02 0.04,9.36 0.77,13 0.58,4.66 2.07,8.19 4.47,10.6 2.41,2.4 5.25,3.93 8.53,4.59 3.28,0.65 6.77,0.47 10.49,-0.55 3.71,-1.02 7.24,-2.7 10.59,-5.03 5.25,-3.49 8.78,-7.24 10.6,-11.25 1.82,-4.01 2.59,-7.79 2.29,-11.36 -0.29,-3.57 -1.3,-6.74 -3.05,-9.51 -1.75,-2.76 -3.5,-4.73 -5.25,-5.9z"/>
    <path id="_1_4" class="fil6" d="M560.09 1478.39c-4.51,12.82 -10.85,22.69 -19.01,29.61 -8.15,6.92 -18.72,11.84 -31.68,14.75 -7.87,1.75 -15.55,2.48 -23.05,2.18 -7.51,-0.29 -14.9,-1.31 -22.18,-3.05 -6.99,-1.75 -12.82,-4.7 -17.48,-8.85 -4.66,-4.16 -7.94,-9.66 -9.83,-16.5 -1.46,-5.83 -2.26,-11.95 -2.41,-18.36 -0.14,-6.41 0.11,-12.82 0.77,-19.23 0.65,-6.41 1.56,-12.85 2.73,-19.33 1.16,-6.48 2.18,-12.79 3.06,-18.9 1.02,-5.69 2.36,-11.29 4.04,-16.83 1.67,-5.54 3.82,-10.74 6.44,-15.62 2.63,-4.88 5.83,-9.4 9.62,-13.55 3.79,-4.15 8.45,-7.68 13.98,-10.6 4.52,-2.33 10.02,-4.15 16.5,-5.46 6.48,-1.31 13.26,-2.15 20.32,-2.51 7.07,-0.37 14.06,-0.26 20.98,0.32 6.92,0.59 13.15,1.53 18.68,2.84 15.73,4.08 23.74,14.43 24.04,31.03 -0.15,6.41 -0.62,13.44 -1.42,21.09 -0.8,7.65 -1.9,15.44 -3.28,23.38 -1.38,7.94 -2.99,15.66 -4.81,23.16 -1.82,7.5 -3.82,14.31 -6.01,20.43zm-39.55 -31.68c0.44,-3.64 1.17,-8.16 2.19,-13.55 1.02,-5.39 1.89,-10.71 2.62,-15.95 0.73,-5.24 1.13,-9.94 1.2,-14.09 0.07,-4.16 -0.47,-6.82 -1.64,-7.98 -0.29,-2.33 -1.49,-3.97 -3.6,-4.92 -2.11,-0.94 -4.56,-1.34 -7.32,-1.2 -2.77,0.15 -5.54,0.84 -8.31,2.08 -2.76,1.24 -4.88,2.8 -6.33,4.69 -0.73,1.17 -1.42,2.37 -2.08,3.61 -0.65,1.24 -1.13,2.44 -1.42,3.61 -1.75,7.43 -3.64,15.55 -5.68,24.36 -2.04,8.81 -3.68,17.3 -4.92,25.46 -1.23,8.15 -1.85,15.44 -1.85,21.85 0,6.41 1.09,10.92 3.27,13.55 0.88,1.74 2.48,2.87 4.81,3.38 2.33,0.51 4.77,0.47 7.32,-0.11 2.55,-0.58 4.99,-1.53 7.32,-2.84 2.33,-1.31 4.01,-2.91 5.03,-4.8 3.06,-5.83 5.06,-11.99 6.01,-18.47 0.94,-6.48 2.07,-12.71 3.38,-18.68z"/>
    <path id="_2_5" class="fil6" d="M710.65 1426.82c-3.94,7.14 -7.62,13.41 -11.04,18.8 -3.42,5.39 -6.88,10.67 -10.38,15.84 -3.49,5.17 -7.06,10.52 -10.7,16.06 -3.65,5.53 -7.65,12.01 -12.02,19.45 -2.48,3.49 -5.07,5.24 -7.76,5.24 -2.69,0 -4.77,-1.82 -6.23,-5.46 -1.16,-5.97 -2.58,-11.66 -4.26,-17.05 -1.67,-5.39 -3.49,-10.78 -5.46,-16.17 -1.97,-5.39 -3.97,-10.96 -6.01,-16.71 -2.04,-5.76 -4,-11.91 -5.9,-18.47 -1.17,4.52 -2.26,9.47 -3.28,14.86 -1.02,5.39 -2.04,10.71 -3.06,15.95 -1.02,5.25 -1.96,10.24 -2.84,14.97 -0.87,4.74 -1.67,8.63 -2.4,11.69 3.2,1.75 5.65,4.08 7.32,6.99 1.67,2.92 2.37,5.94 2.08,9.07 -0.29,3.13 -1.57,6.16 -3.83,9.07 -2.26,2.91 -5.57,5.17 -9.94,6.77 -5.1,1.9 -10.16,2.77 -15.19,2.62 -5.02,-0.14 -10.01,-0.65 -14.96,-1.52 -4.67,0 -8.16,-1.06 -10.49,-3.17 -2.33,-2.11 -3.65,-4.7 -3.94,-7.76 -0.29,-3.06 0.44,-6.23 2.19,-9.5 1.75,-3.28 4.37,-6.09 7.87,-8.42 3.05,-2.04 4.8,-4.81 5.24,-8.3 1.02,-6.56 2.15,-13.48 3.39,-20.76 1.24,-7.28 2.54,-14.71 3.93,-22.29 1.38,-7.57 2.69,-15 3.93,-22.28 1.24,-7.29 2.37,-14.21 3.39,-20.76 0.29,-1.61 0.11,-2.95 -0.55,-4.04 -0.65,-1.1 -1.42,-2.16 -2.29,-3.17 -1.6,-1.9 -3.02,-3.9 -4.26,-6.01 -1.24,-2.11 -1.93,-4.55 -2.08,-7.32 -0.73,-4.66 0.47,-8.71 3.61,-12.13 3.13,-3.42 7.83,-5.5 14.09,-6.23 7.58,-0.87 14.42,-1.02 20.54,-0.43 6.12,0.58 12.67,1.09 19.67,1.53 6.7,0.29 10.85,3.56 12.45,9.83 1.17,4.51 2.3,9.28 3.39,14.31 1.09,5.03 2.15,10.16 3.17,15.41 1.02,5.24 2,10.45 2.95,15.62 0.94,5.17 1.78,10.16 2.51,14.97 1.6,-3.94 3.68,-8.42 6.23,-13.44 2.55,-5.03 5.17,-10.13 7.86,-15.3 2.7,-5.17 5.25,-10.05 7.65,-14.64 2.41,-4.59 4.41,-8.34 6.01,-11.25 4.66,-9.32 12.17,-14.64 22.51,-15.95 3.35,-0.44 6.52,-0.73 9.5,-0.88 2.99,-0.14 5.9,-0.18 8.74,-0.1 2.84,0.07 5.68,0.25 8.52,0.54 2.85,0.29 5.94,0.58 9.29,0.88 2.91,0.43 5.5,1.2 7.76,2.29 2.26,1.09 4,2.51 5.24,4.26 1.24,1.75 1.82,3.75 1.75,6.01 -0.07,2.26 -0.98,4.77 -2.73,7.54 -2.19,3.35 -4.74,6.26 -7.65,8.74 -1.6,1.16 -2.69,2.37 -3.28,3.6 -0.58,1.24 -1.02,2.66 -1.31,4.26 -1.6,10.78 -3.38,22.37 -5.35,34.75 -1.97,12.38 -3.75,23.96 -5.35,34.74 -1.32,4.66 -1.68,8.89 -1.1,12.67 0.59,3.79 1.9,7.36 3.94,10.71 3.49,5.39 4.15,10.74 1.96,16.06 -2.18,5.32 -6.77,9.29 -13.76,11.91 -7.43,2.77 -14.86,4.26 -22.29,4.48 -7.43,0.22 -14.5,-0.47 -21.2,-2.08 -4.8,-1.16 -8.19,-3.31 -10.16,-6.44 -1.96,-3.14 -1.78,-7.25 0.55,-12.35 0.58,-1.31 1.45,-2.66 2.62,-4.04 1.17,-1.38 2.48,-2.81 3.93,-4.26 1.46,-1.46 2.92,-2.77 4.37,-3.93 1.46,-1.17 2.77,-2.19 3.94,-3.06 1.02,-3.94 1.82,-7.43 2.4,-10.49 0.58,-3.06 1.13,-6.56 1.64,-10.49 0.51,-3.93 1.09,-8.71 1.75,-14.31 0.65,-5.61 1.71,-12.79 3.17,-21.53z"/>
    <path id="_3_6" class="fil6" d="M791.06 1393.17c0.14,-1.6 0.11,-2.91 -0.11,-3.93 -0.22,-1.02 -0.91,-1.97 -2.08,-2.84 -2.77,-2.04 -4.62,-4.26 -5.57,-6.67 -0.95,-2.4 -1.13,-4.8 -0.55,-7.21 0.59,-2.4 1.97,-4.66 4.16,-6.77 2.18,-2.11 5.1,-3.82 8.74,-5.13 7.43,-2.19 14.2,-3.5 20.32,-3.94 6.12,-0.43 12.6,-0.22 19.45,0.66 5.38,0 9.21,1.13 11.47,3.39 2.25,2.25 3.35,5.02 3.27,8.3 -0.07,3.28 -1.09,6.66 -3.05,10.16 -1.97,3.49 -4.56,6.55 -7.76,9.18 -1.75,1.31 -2.99,2.69 -3.72,4.15 -0.72,1.45 -1.24,3.06 -1.53,4.81 -1.02,5.53 -2.07,11.39 -3.16,17.58 -1.1,6.2 -2.19,12.42 -3.28,18.69 -1.1,6.26 -2.19,12.45 -3.28,18.57 -1.09,6.12 -2.15,11.95 -3.17,17.48 -0.29,2.19 -0.58,4.41 -0.87,6.67 -0.29,2.25 -0.37,4.37 -0.22,6.33 0.15,1.97 0.51,3.79 1.09,5.47 0.58,1.67 1.6,3.16 3.06,4.48 3.21,2.91 4.74,6.04 4.59,9.39 -0.15,3.35 -1.6,7.07 -4.37,11.14 -1.75,1.9 -4.88,3.43 -9.4,4.59 -4.51,1.17 -9.57,1.97 -15.18,2.41 -5.61,0.43 -11.29,0.4 -17.05,-0.11 -5.75,-0.51 -10.74,-1.57 -14.96,-3.17 -4.08,-2.62 -6.31,-5.28 -6.67,-7.98 -0.36,-2.69 1.35,-6.15 5.14,-10.38l0 -0.43c0,-0.15 0.07,-0.22 0.21,-0.22 3.36,-2.19 5.5,-4.81 6.45,-7.87 0.95,-3.06 1.79,-6.26 2.51,-9.61 1.17,-5.98 2.37,-12.49 3.61,-19.56 1.24,-7.06 2.44,-13.58 3.6,-19.55 0.59,-3.5 1.28,-7.33 2.08,-11.48 0.8,-4.15 1.57,-8.37 2.29,-12.67 0.73,-4.3 1.43,-8.49 2.08,-12.57 0.66,-4.07 1.27,-7.86 1.86,-11.36z"/>
    <path id="_4_7" class="fil6" d="M890.04 1484.29c1.31,1.17 2.22,2.33 2.74,3.5 0.5,1.16 1.34,2.4 2.51,3.71 3.35,3.79 4.4,7.94 3.16,12.46 -1.23,4.51 -4.55,8.08 -9.94,10.71 -3.2,1.6 -7.17,2.8 -11.91,3.6 -4.73,0.8 -9.57,1.06 -14.53,0.77 -4.95,-0.3 -9.54,-1.24 -13.76,-2.85 -4.23,-1.6 -7.43,-4.07 -9.62,-7.43 -1.74,-3.05 -2.4,-5.28 -1.96,-6.66 0.43,-1.38 1.67,-3.31 3.71,-5.79 0.88,-1.02 1.82,-1.97 2.84,-2.84 1.02,-0.87 2.04,-1.71 3.06,-2.51 1.02,-0.8 1.9,-1.68 2.62,-2.63 0.73,-0.94 1.32,-2 1.75,-3.17 3.21,-12.67 5.76,-25.93 7.65,-39.76 1.89,-13.84 3.86,-27.1 5.9,-39.77 0,-0.73 0.14,-1.82 0.43,-3.28 0.44,-2.77 0.44,-5.32 0,-7.65 -0.43,-2.33 -1.6,-4.51 -3.49,-6.55 -2.04,-2.33 -3.24,-4.96 -3.61,-7.87 -0.36,-2.91 0.48,-6.05 2.52,-9.39 2.04,-3.36 4.77,-5.94 8.19,-7.76 3.42,-1.82 7.03,-2.88 10.82,-3.17 5.24,-0.44 10.12,-0.44 14.64,0 4.51,0.44 9.39,0.73 14.64,0.87 4.37,0.15 7.97,1.2 10.82,3.17 2.83,1.97 4.76,5.21 5.78,9.73 2.48,11.65 5.79,23.38 9.95,35.18 4.15,11.8 8.26,23.23 12.34,34.3 0.88,-7.43 2.01,-15.48 3.39,-24.14 1.38,-8.67 2.66,-16.87 3.82,-24.59 0.44,-2.76 -0.29,-4.88 -2.18,-6.33 -0.59,-0.44 -1.09,-0.91 -1.53,-1.42 -0.44,-0.51 -1.02,-1.06 -1.75,-1.64 -2.18,-2.77 -3.42,-5.32 -3.72,-7.65 -0.29,-2.33 0.12,-4.41 1.21,-6.23 1.09,-1.82 2.62,-3.42 4.59,-4.8 1.96,-1.39 4.19,-2.66 6.66,-3.83 2.77,-1.16 6.12,-2.11 10.05,-2.84 3.93,-0.73 7.98,-1.13 12.13,-1.2 4.15,-0.07 8.16,0.22 12.02,0.87 3.86,0.66 7.14,1.79 9.83,3.39 2.7,1.6 4.52,3.75 5.46,6.45 0.95,2.69 0.62,6.01 -0.98,9.94 -2.48,3.64 -5.32,6.85 -8.52,9.61 -2.33,2.04 -3.72,4.45 -4.15,7.21 -1.9,8.45 -3.83,17.41 -5.8,26.88 -1.96,9.47 -3.82,18.94 -5.57,28.41 -1.74,9.47 -3.24,18.75 -4.47,27.86 -1.24,9.1 -2.01,17.44 -2.3,25.02 0.44,5.24 -0.44,9.03 -2.62,11.36 -2.19,2.33 -5.9,3.64 -11.14,3.93 -3.5,0.15 -6.38,0.07 -8.64,-0.22 -2.26,-0.29 -5.06,-0.58 -8.41,-0.87 -4.81,-3.35 -9.54,-8.74 -14.2,-16.17 -4.67,-7.43 -9.04,-15.7 -13.11,-24.8 -4.08,-9.11 -7.76,-18.39 -11.04,-27.86 -3.28,-9.47 -5.93,-17.92 -7.97,-25.35 -0.73,4.37 -1.46,9.47 -2.19,15.3 -0.73,5.82 -1.46,11.61 -2.18,17.37 -0.73,5.75 -1.42,11.11 -2.08,16.06 -0.65,4.95 -1.27,8.74 -1.86,11.36z"/>
    <path id="_5_8" class="fil6" d="M1087.14 1462c-2.33,0.15 -4.74,0.08 -7.21,-0.22 -2.48,-0.29 -4.74,-0.8 -6.78,-1.52 -2.04,-0.73 -3.71,-1.82 -5.02,-3.28 -1.31,-1.46 -1.97,-3.35 -1.97,-5.68 0.44,-5.83 2.55,-10.46 6.34,-13.88 3.78,-3.42 8.23,-5.64 13.33,-6.66 6.41,-1.02 12.78,-1.68 19.12,-1.97 6.33,-0.29 12.2,0.51 17.59,2.4 3.93,1.17 6.73,2.95 8.41,5.36 1.68,2.4 2.62,5.2 2.84,8.41 0.22,3.2 -0.04,6.59 -0.77,10.16 -0.72,3.57 -1.45,7.1 -2.18,10.6 -0.58,2.91 -1.24,5.57 -1.97,7.97 -0.73,2.41 -1.35,4.7 -1.85,6.89 -0.51,2.18 -0.92,4.29 -1.21,6.33 -0.29,2.04 -0.36,4.16 -0.21,6.34 0.14,0.73 0.36,1.46 0.65,2.19 0.29,0.72 0.69,1.2 1.2,1.42 0.51,0.21 1.06,0.07 1.64,-0.44 0.59,-0.51 1.31,-1.57 2.19,-3.17 1.6,-4.37 3.13,-6.37 4.59,-6.01 1.45,0.37 1.89,2.59 1.31,6.67 -0.88,7.28 -3.39,13.32 -7.54,18.13 -4.15,4.81 -9.03,8.09 -14.64,9.84 -5.61,1.74 -11.55,1.78 -17.81,0.1 -6.26,-1.67 -11.87,-5.42 -16.83,-11.25 -3.64,4.95 -8.77,8.56 -15.4,10.82 -6.63,2.25 -13.55,3.35 -20.76,3.28 -7.21,-0.08 -14.06,-1.24 -20.54,-3.5 -6.48,-2.26 -11.47,-5.57 -14.97,-9.94 -3.93,-5.54 -6.73,-11.73 -8.41,-18.58 -1.68,-6.84 -2.51,-13.98 -2.51,-21.41 0,-7.43 0.69,-14.9 2.07,-22.4 1.39,-7.5 3.17,-14.71 5.36,-21.63 2.18,-6.92 4.73,-13.37 7.64,-19.34 2.92,-5.97 5.91,-11.07 8.96,-15.29 4.81,-7.43 10.27,-13.66 16.39,-18.69 6.12,-5.02 12.53,-8.99 19.23,-11.9 6.7,-2.92 13.51,-4.99 20.43,-6.23 6.92,-1.24 13.58,-1.71 19.99,-1.42 6.41,0.29 12.32,1.13 17.7,2.51 5.4,1.38 9.98,3.17 13.77,5.35 5.83,3.5 10.34,8.02 13.55,13.55 3.2,5.54 4.8,11.14 4.8,16.83 0,5.68 -1.82,10.92 -5.46,15.73 -3.64,4.81 -9.32,8.3 -17.04,10.49 -6.99,1.45 -12.93,1.89 -17.81,1.31 -4.88,-0.58 -9.8,-2.11 -14.75,-4.59 -1.46,-0.73 -1.82,-1.68 -1.09,-2.84 0.73,-1.17 1.93,-2.48 3.6,-3.93 1.68,-1.46 3.43,-3.03 5.25,-4.7 1.82,-1.68 3.09,-3.46 3.82,-5.35 0.88,-3.94 -0.18,-7.36 -3.17,-10.27 -2.98,-2.92 -6.77,-4.7 -11.36,-5.36 -4.59,-0.65 -9.32,0.18 -14.2,2.51 -4.88,2.34 -8.71,6.78 -11.47,13.33 -2.19,5.1 -4.41,11.29 -6.67,18.58 -2.26,7.28 -4.26,14.78 -6.01,22.5 -1.75,7.72 -3.06,15.26 -3.93,22.62 -0.87,7.36 -1.02,13.58 -0.44,18.68 0.29,5.54 2.04,9.43 5.25,11.69 3.2,2.26 6.81,3.28 10.81,3.06 4.01,-0.22 7.83,-1.42 11.47,-3.6 3.65,-2.19 6.12,-4.89 7.43,-8.09 1.17,-3.06 2.22,-6.74 3.17,-11.04 0.95,-4.29 1.64,-8.12 2.08,-11.47z"/>
    <path id="_6_9" class="fil6" d="M1244.03 1465.5c-4.66,2.91 -7.69,6.12 -9.07,9.61 -1.38,3.5 -1.24,6.71 0.44,9.62 1.67,2.91 4.84,5.28 9.5,7.1 4.66,1.82 10.78,2.51 18.36,2.08 5.53,-0.59 9.65,-2.34 12.34,-5.25 2.7,-2.91 4.15,-6.15 4.37,-9.72 0.22,-3.57 -0.73,-7.14 -2.84,-10.71 -2.11,-3.57 -5.21,-6.3 -9.29,-8.19 -4.22,-1.46 -8.88,-2.99 -13.98,-4.59 -5.1,-1.6 -10.16,-3.35 -15.19,-5.25 -5.02,-1.89 -9.79,-4.04 -14.31,-6.44 -4.52,-2.4 -8.16,-5.21 -10.92,-8.42 -6.41,-6.55 -9.98,-13.58 -10.71,-21.08 -0.73,-7.5 1.6,-16.43 6.99,-26.77 8.16,-15.73 20.76,-25.56 37.8,-29.5 11.51,-2.47 22.77,-3.42 33.76,-2.84 11,0.59 21.31,2.7 30.92,6.34 7.58,2.77 13.37,6.95 17.37,12.56 4.01,5.61 6.6,12.42 7.76,20.43 0.58,4.38 -0.33,8.13 -2.73,11.26 -2.41,3.13 -5.94,5.06 -10.6,5.79 -3.06,0.44 -5.79,0.8 -8.19,1.09 -2.41,0.29 -4.66,0.44 -6.78,0.44 -2.11,0 -4.22,-0.18 -6.33,-0.55 -2.11,-0.36 -4.48,-0.91 -7.1,-1.64 -2.33,-0.58 -3.87,-1.53 -4.59,-2.84 -0.73,-1.31 -0.95,-3.2 -0.66,-5.68 3.79,-2.04 6.26,-3.9 7.43,-5.57 1.17,-1.68 1.35,-3.13 0.55,-4.37 -0.81,-1.24 -2.3,-2.3 -4.48,-3.17 -2.19,-0.87 -4.66,-1.53 -7.43,-1.97 -2.77,-0.43 -5.61,-0.72 -8.52,-0.87 -2.92,-0.15 -5.47,-0.15 -7.65,0 -4.95,0.44 -8.85,1.75 -11.69,3.93 -2.84,2.19 -4.63,4.59 -5.36,7.21 -0.72,2.62 -0.36,5.28 1.1,7.98 1.45,2.69 4.08,4.84 7.86,6.45 3.21,1.74 6.81,3.42 10.82,5.02 4.01,1.6 8.05,3.13 12.13,4.59 4.08,1.46 8.08,2.88 12.02,4.26 3.93,1.38 7.5,2.73 10.7,4.04 8.74,3.64 15.01,8.89 18.79,15.74 3.79,6.84 5.1,15.07 3.94,24.69 -0.73,6.55 -2.3,12.89 -4.7,19.01 -2.41,6.12 -5.65,11.72 -9.73,16.82 -4.07,5.1 -9.03,9.51 -14.85,13.22 -5.83,3.72 -12.46,6.45 -19.89,8.2 -25.93,5.68 -49.74,3.86 -71.45,-5.47 -3.93,-1.75 -7.65,-4.18 -11.14,-7.32 -3.5,-3.13 -6.19,-6.7 -8.09,-10.7 -1.89,-4.01 -2.58,-8.27 -2.08,-12.79 0.52,-4.51 2.74,-9.1 6.67,-13.76 3.79,-4.23 7.94,-7.36 12.46,-9.4 4.51,-2.04 9.25,-3.57 14.2,-4.59 3.79,-0.72 7.46,-1.02 11.03,-0.87 3.57,0.15 7.25,1.09 11.04,2.84z"/>
    <path id="_7_10" class="fil6" d="M1467.56 1478.39c-4.51,12.82 -10.85,22.69 -19.01,29.61 -8.16,6.92 -18.72,11.84 -31.68,14.75 -7.87,1.75 -15.55,2.48 -23.06,2.18 -7.5,-0.29 -14.89,-1.31 -22.17,-3.05 -7,-1.75 -12.82,-4.7 -17.48,-8.85 -4.67,-4.16 -7.94,-9.66 -9.84,-16.5 -1.45,-5.83 -2.26,-11.95 -2.4,-18.36 -0.15,-6.41 0.11,-12.82 0.76,-19.23 0.66,-6.41 1.57,-12.85 2.74,-19.33 1.16,-6.48 2.18,-12.79 3.05,-18.9 1.02,-5.69 2.37,-11.29 4.05,-16.83 1.67,-5.54 3.82,-10.74 6.44,-15.62 2.62,-4.88 5.83,-9.4 9.62,-13.55 3.78,-4.15 8.45,-7.68 13.98,-10.6 4.52,-2.33 10.02,-4.15 16.5,-5.46 6.48,-1.31 13.26,-2.15 20.32,-2.51 7.06,-0.37 14.06,-0.26 20.98,0.32 6.92,0.59 13.14,1.53 18.68,2.84 15.73,4.08 23.74,14.43 24.04,31.03 -0.15,6.41 -0.62,13.44 -1.42,21.09 -0.81,7.65 -1.9,15.44 -3.28,23.38 -1.39,7.94 -2.99,15.66 -4.81,23.16 -1.82,7.5 -3.82,14.31 -6.01,20.43zm-39.55 -31.68c0.44,-3.64 1.17,-8.16 2.19,-13.55 1.02,-5.39 1.89,-10.71 2.62,-15.95 0.73,-5.24 1.13,-9.94 1.2,-14.09 0.07,-4.16 -0.47,-6.82 -1.64,-7.98 -0.29,-2.33 -1.49,-3.97 -3.61,-4.92 -2.11,-0.94 -4.55,-1.34 -7.31,-1.2 -2.77,0.15 -5.54,0.84 -8.31,2.08 -2.77,1.24 -4.88,2.8 -6.33,4.69 -0.73,1.17 -1.42,2.37 -2.08,3.61 -0.66,1.24 -1.13,2.44 -1.42,3.61 -1.75,7.43 -3.64,15.55 -5.68,24.36 -2.04,8.81 -3.68,17.3 -4.92,25.46 -1.24,8.15 -1.86,15.44 -1.86,21.85 0,6.41 1.1,10.92 3.28,13.55 0.88,1.74 2.48,2.87 4.81,3.38 2.33,0.51 4.77,0.47 7.32,-0.11 2.55,-0.58 4.99,-1.53 7.32,-2.84 2.33,-1.31 4.01,-2.91 5.02,-4.8 3.06,-5.83 5.07,-11.99 6.01,-18.47 0.95,-6.48 2.08,-12.71 3.39,-18.68z"/>
    <path id="_8_11" class="fil6" d="M1608.06 1478.39c-4.51,12.82 -10.85,22.69 -19.01,29.61 -8.15,6.92 -18.72,11.84 -31.68,14.75 -7.87,1.75 -15.55,2.48 -23.05,2.18 -7.51,-0.29 -14.9,-1.31 -22.18,-3.05 -6.99,-1.75 -12.82,-4.7 -17.48,-8.85 -4.66,-4.16 -7.94,-9.66 -9.83,-16.5 -1.46,-5.83 -2.26,-11.95 -2.41,-18.36 -0.14,-6.41 0.11,-12.82 0.77,-19.23 0.65,-6.41 1.56,-12.85 2.73,-19.33 1.16,-6.48 2.18,-12.79 3.06,-18.9 1.02,-5.69 2.36,-11.29 4.04,-16.83 1.67,-5.54 3.82,-10.74 6.44,-15.62 2.63,-4.88 5.83,-9.4 9.62,-13.55 3.79,-4.15 8.45,-7.68 13.98,-10.6 4.52,-2.33 10.02,-4.15 16.5,-5.46 6.48,-1.31 13.26,-2.15 20.32,-2.51 7.07,-0.37 14.06,-0.26 20.98,0.32 6.92,0.59 13.15,1.53 18.68,2.84 15.73,4.08 23.74,14.43 24.04,31.03 -0.15,6.41 -0.62,13.44 -1.42,21.09 -0.8,7.65 -1.9,15.44 -3.28,23.38 -1.38,7.94 -2.99,15.66 -4.81,23.16 -1.82,7.5 -3.82,14.31 -6.01,20.43zm-39.55 -31.68c0.44,-3.64 1.17,-8.16 2.19,-13.55 1.02,-5.39 1.89,-10.71 2.62,-15.95 0.73,-5.24 1.13,-9.94 1.2,-14.09 0.07,-4.16 -0.47,-6.82 -1.64,-7.98 -0.29,-2.33 -1.49,-3.97 -3.6,-4.92 -2.11,-0.94 -4.56,-1.34 -7.32,-1.2 -2.77,0.15 -5.54,0.84 -8.31,2.08 -2.76,1.24 -4.88,2.8 -6.33,4.69 -0.73,1.17 -1.42,2.37 -2.08,3.61 -0.65,1.24 -1.13,2.44 -1.42,3.61 -1.75,7.43 -3.64,15.55 -5.68,24.36 -2.04,8.81 -3.68,17.3 -4.92,25.46 -1.23,8.15 -1.85,15.44 -1.85,21.85 0,6.41 1.09,10.92 3.27,13.55 0.88,1.74 2.48,2.87 4.81,3.38 2.33,0.51 4.77,0.47 7.32,-0.11 2.55,-0.58 4.99,-1.53 7.32,-2.84 2.33,-1.31 4.01,-2.91 5.03,-4.8 3.06,-5.83 5.06,-11.99 6.01,-18.47 0.94,-6.48 2.07,-12.71 3.38,-18.68z"/>
    <path id="_9_12" class="fil6" d="M1669.47 1484.29c1.31,1.17 2.22,2.33 2.73,3.5 0.51,1.16 1.34,2.4 2.51,3.71 3.35,3.79 4.41,7.94 3.17,12.46 -1.24,4.51 -4.56,8.08 -9.94,10.71 -3.21,1.6 -7.18,2.8 -11.91,3.6 -4.74,0.8 -9.58,1.06 -14.53,0.77 -4.96,-0.3 -9.55,-1.24 -13.77,-2.85 -4.22,-1.6 -7.43,-4.07 -9.61,-7.43 -1.75,-3.05 -2.41,-5.28 -1.97,-6.66 0.43,-1.38 1.67,-3.31 3.71,-5.79 0.88,-1.02 1.82,-1.97 2.84,-2.84 1.02,-0.87 2.04,-1.71 3.06,-2.51 1.02,-0.8 1.9,-1.68 2.63,-2.63 0.72,-0.94 1.31,-2 1.74,-3.17 3.21,-12.67 5.76,-25.93 7.65,-39.76 1.9,-13.84 3.86,-27.1 5.9,-39.77 0,-0.73 0.15,-1.82 0.44,-3.28 0.43,-2.77 0.43,-5.32 0,-7.65 -0.44,-2.33 -1.61,-4.51 -3.5,-6.55 -2.04,-2.33 -3.24,-4.96 -3.6,-7.87 -0.37,-2.91 0.47,-6.05 2.51,-9.39 2.04,-3.36 4.77,-5.94 8.19,-7.76 3.43,-1.82 7.03,-2.88 10.82,-3.17 5.24,-0.44 10.12,-0.44 14.64,0 4.51,0.44 9.4,0.73 14.64,0.87 4.37,0.15 7.97,1.2 10.82,3.17 2.84,1.97 4.77,5.21 5.79,9.73 2.47,11.65 5.79,23.38 9.94,35.18 4.15,11.8 8.27,23.23 12.35,34.3 0.87,-7.43 2,-15.48 3.38,-24.14 1.38,-8.67 2.66,-16.87 3.82,-24.59 0.44,-2.76 -0.29,-4.88 -2.18,-6.33 -0.58,-0.44 -1.09,-0.91 -1.53,-1.42 -0.44,-0.51 -1.02,-1.06 -1.75,-1.64 -2.18,-2.77 -3.42,-5.32 -3.71,-7.65 -0.29,-2.33 0.11,-4.41 1.2,-6.23 1.09,-1.82 2.62,-3.42 4.59,-4.8 1.96,-1.39 4.19,-2.66 6.66,-3.83 2.77,-1.16 6.12,-2.11 10.05,-2.84 3.94,-0.73 7.98,-1.13 12.13,-1.2 4.15,-0.07 8.16,0.22 12.02,0.87 3.86,0.66 7.14,1.79 9.83,3.39 2.7,1.6 4.52,3.75 5.47,6.45 0.94,2.69 0.61,6.01 -0.99,9.94 -2.47,3.64 -5.32,6.85 -8.52,9.61 -2.33,2.04 -3.72,4.45 -4.15,7.21 -1.9,8.45 -3.82,17.41 -5.79,26.88 -1.97,9.47 -3.83,18.94 -5.57,28.41 -1.75,9.47 -3.24,18.75 -4.48,27.86 -1.24,9.1 -2.01,17.44 -2.3,25.02 0.44,5.24 -0.43,9.03 -2.62,11.36 -2.19,2.33 -5.9,3.64 -11.14,3.93 -3.5,0.15 -6.38,0.07 -8.64,-0.22 -2.25,-0.29 -5.06,-0.58 -8.41,-0.87 -4.81,-3.35 -9.54,-8.74 -14.2,-16.17 -4.66,-7.43 -9.03,-15.7 -13.11,-24.8 -4.08,-9.11 -7.76,-18.39 -11.04,-27.86 -3.27,-9.47 -5.93,-17.92 -7.97,-25.35 -0.73,4.37 -1.46,9.47 -2.19,15.3 -0.73,5.82 -1.45,11.61 -2.18,17.37 -0.73,5.75 -1.42,11.11 -2.08,16.06 -0.65,4.95 -1.27,8.74 -1.85,11.36z"/>
    <path class="fil2" d="M1894.33 1294.52c4.13,-13.03 -3.19,-27.27 -16.15,-31.46 -13.03,-4.14 -27.27,3.19 -31.47,16.22l-45.71 142.8c-4.13,12.96 3.19,27.2 16.22,31.39 12.97,4.14 27.2,-3.19 31.4,-16.22l45.71 -142.73zm-118.22 194.99c-4.71,14.85 3.34,30.58 18.26,35.36 14.85,4.71 30.58,-3.33 35.29,-18.19 4.78,-14.91 -3.33,-30.58 -18.18,-35.36 -14.86,-4.77 -30.59,3.34 -35.37,18.19z"/>
   </g>
  </g>
  <path class="fil7" d="M2238.04 6.51c145.02,432.22 15.47,833.38 -100.46,1192.2 -131.36,406.62 -244.92,758.43 83.69,1036.33l0 16.95c-345.62,-284.55 -229.97,-642.73 -96.05,-1057.25 116.06,-359.25 245.91,-761.17 97.63,-1192.63 0.05,-2.38 11.32,-1.57 15.19,4.4z"/>
 </g>
</svg>
